M48
;DRILL file {KiCad 4.0.5} date 07/20/17 14:14:01
;FORMAT={-:-/ absolute / inch / decimal}
FMAT,2
INCH,TZ
T1C0.030
T2C0.031
T3C0.035
T4C0.035
T5C0.039
T6C0.040
T7C0.043
T8C0.051
%
G90
G05
M72
T1
X5.0394Y-3.9937
X6.3Y-3.35
X6.3Y-3.45
X6.3Y-3.55
X6.3Y-3.65
X6.3Y-4.3
X6.3Y-4.4
X6.3Y-4.5
X6.3Y-4.6
X6.3Y-4.7
X6.3Y-4.8
T2
X4.5669Y-3.6614
X4.5669Y-4.1614
X4.6Y-4.325
X4.6Y-4.4234
X5.Y-3.675
X5.Y-4.325
X5.0394Y-3.8976
X5.0394Y-4.0898
X5.0984Y-3.675
X5.0984Y-4.325
X5.8Y-3.8031
X5.8Y-4.
X5.8Y-4.2031
X5.8Y-4.4
X5.95Y-4.2031
X5.95Y-4.4
T3
X4.874Y-3.235
X5.0472Y-3.235
T4
X4.5669Y-3.4433
X4.5669Y-3.5433
X4.76Y-3.66
X4.76Y-4.06
T5
X4.9295Y-3.5039
X5.0295Y-3.5039
T6
X6.6039Y-3.1397
X6.6039Y-3.3957
X6.6039Y-3.5137
X6.6039Y-3.7697
X6.6039Y-3.8877
X6.6039Y-4.1437
X6.6039Y-4.2618
X6.6039Y-4.5178
X6.6039Y-4.6358
X6.6039Y-4.8918
X6.7819Y-3.1397
X6.7819Y-3.3957
X6.7819Y-3.5137
X6.7819Y-3.7697
X6.7819Y-3.8877
X6.7819Y-4.1437
X6.7819Y-4.2618
X6.7819Y-4.5178
X6.7819Y-4.6358
X6.7819Y-4.8918
T7
X5.3Y-3.3
X5.3Y-3.4
X5.3Y-3.5
X5.3Y-3.6
X5.3Y-3.7
X5.3Y-3.8
X5.3Y-3.9
X5.3Y-4.
X5.3Y-4.1
X5.3Y-4.2
X5.3Y-4.3
X5.3Y-4.4
X5.3Y-4.5
X5.3Y-4.6
X5.6Y-3.3
X5.6Y-3.4
X5.6Y-3.5
X5.6Y-3.6
X5.6Y-3.7
X5.6Y-3.8
X5.6Y-3.9
X5.6Y-4.
X5.6Y-4.1
X5.6Y-4.2
X5.6Y-4.3
X5.6Y-4.4
X5.6Y-4.5
X5.6Y-4.6
T8
X4.7093Y-4.6532
X4.8116Y-4.6532
X4.91Y-4.85
X5.0084Y-4.6532
X5.1107Y-4.6532
T0
M30
