G04 #@! TF.FileFunction,Soldermask,Bot*
%FSLAX46Y46*%
G04 Gerber Fmt 4.6, Leading zero omitted, Abs format (unit mm)*
G04 Created by KiCad (PCBNEW 4.0.5) date 07/20/17 14:13:58*
%MOMM*%
%LPD*%
G01*
G04 APERTURE LIST*
%ADD10C,0.100000*%
%ADD11C,2.000000*%
%ADD12R,2.000000X2.000000*%
%ADD13R,2.200000X2.200000*%
%ADD14C,2.200000*%
%ADD15C,1.924000*%
%ADD16R,2.800000X2.000000*%
%ADD17O,2.940000X2.000000*%
%ADD18C,1.309320*%
%ADD19R,2.100000X2.100000*%
%ADD20O,2.100000X2.100000*%
%ADD21C,1.900000*%
%ADD22O,2.000000X2.000000*%
%ADD23C,2.279600*%
%ADD24C,2.400000*%
%ADD25C,2.581860*%
%ADD26C,3.900000*%
G04 APERTURE END LIST*
D10*
D11*
X127000000Y-93345000D03*
X129500000Y-93345000D03*
X127000000Y-109855000D03*
X129500000Y-109855000D03*
D12*
X116840000Y-109855000D03*
D11*
X116840000Y-112355000D03*
X147320000Y-111760000D03*
X147320000Y-106760000D03*
X147320000Y-101600000D03*
X147320000Y-96600000D03*
X151130000Y-111760000D03*
X151130000Y-106760000D03*
D13*
X116000000Y-90000000D03*
D14*
X116000000Y-87460000D03*
D15*
X160020000Y-85090000D03*
X160020000Y-87630000D03*
X160020000Y-90170000D03*
X160020000Y-92710000D03*
D16*
X134620000Y-83820000D03*
D17*
X142240000Y-116840000D03*
X134620000Y-86360000D03*
X142240000Y-114300000D03*
X134620000Y-88900000D03*
X142240000Y-111760000D03*
X134620000Y-91440000D03*
X142240000Y-109220000D03*
X134620000Y-93980000D03*
X142240000Y-106680000D03*
X134620000Y-96520000D03*
X142240000Y-104140000D03*
X134620000Y-99060000D03*
X142240000Y-101600000D03*
X134620000Y-101600000D03*
X142240000Y-99060000D03*
X134620000Y-104140000D03*
X142240000Y-96520000D03*
X134620000Y-106680000D03*
X142240000Y-93980000D03*
X134620000Y-109220000D03*
X142240000Y-91440000D03*
X134620000Y-111760000D03*
X142240000Y-88900000D03*
X134620000Y-114300000D03*
X142240000Y-86360000D03*
X134620000Y-116840000D03*
X142240000Y-83820000D03*
D18*
X128199640Y-82170180D03*
X123800360Y-82170180D03*
D19*
X127750000Y-89000000D03*
D20*
X125210000Y-89000000D03*
D21*
X128000000Y-99000000D03*
X128000000Y-103880000D03*
D15*
X128000000Y-101440000D03*
D11*
X116000000Y-93000000D03*
D22*
X116000000Y-105700000D03*
D23*
X172260600Y-117748800D03*
X172260600Y-124251200D03*
X167739400Y-117748800D03*
X167739400Y-124251200D03*
X172260600Y-108248800D03*
X172260600Y-114751200D03*
X167739400Y-108248800D03*
X167739400Y-114751200D03*
X172260600Y-98748800D03*
X172260600Y-105251200D03*
X167739400Y-98748800D03*
X167739400Y-105251200D03*
X172260600Y-89248800D03*
X172260600Y-95751200D03*
X167739400Y-89248800D03*
X167739400Y-95751200D03*
X172260600Y-79748800D03*
X172260600Y-86251200D03*
X167739400Y-79748800D03*
X167739400Y-86251200D03*
D24*
X160020000Y-109220000D03*
X160020000Y-111760000D03*
X160020000Y-114300000D03*
X160020000Y-116840000D03*
X160020000Y-119380000D03*
X160020000Y-121920000D03*
D25*
X119616220Y-118191280D03*
X122214640Y-118191280D03*
X124714000Y-123190000D03*
X129811780Y-118191280D03*
X127213360Y-118191280D03*
D26*
X115000000Y-124000000D03*
X115000000Y-80000000D03*
X179000000Y-80000000D03*
X179000000Y-124000000D03*
D14*
X120904000Y-103124000D03*
D13*
X120904000Y-92964000D03*
M02*
