G04 #@! TF.FileFunction,Legend,Bot*
%FSLAX46Y46*%
G04 Gerber Fmt 4.6, Leading zero omitted, Abs format (unit mm)*
G04 Created by KiCad (PCBNEW 4.0.5) date 07/20/17 14:13:58*
%MOMM*%
%LPD*%
G01*
G04 APERTURE LIST*
%ADD10C,0.100000*%
%ADD11C,0.200000*%
G04 APERTURE END LIST*
D10*
D11*
X153542857Y-80457143D02*
X153580952Y-80571429D01*
X153619048Y-80609524D01*
X153695238Y-80647619D01*
X153809524Y-80647619D01*
X153885714Y-80609524D01*
X153923810Y-80571429D01*
X153961905Y-80495238D01*
X153961905Y-80190476D01*
X153161905Y-80190476D01*
X153161905Y-80457143D01*
X153200000Y-80533333D01*
X153238095Y-80571429D01*
X153314286Y-80609524D01*
X153390476Y-80609524D01*
X153466667Y-80571429D01*
X153504762Y-80533333D01*
X153542857Y-80457143D01*
X153542857Y-80190476D01*
X153961905Y-81333333D02*
X153542857Y-81333333D01*
X153466667Y-81295238D01*
X153428571Y-81219048D01*
X153428571Y-81066667D01*
X153466667Y-80990476D01*
X153923810Y-81333333D02*
X153961905Y-81257143D01*
X153961905Y-81066667D01*
X153923810Y-80990476D01*
X153847619Y-80952381D01*
X153771429Y-80952381D01*
X153695238Y-80990476D01*
X153657143Y-81066667D01*
X153657143Y-81257143D01*
X153619048Y-81333333D01*
X153923810Y-81676191D02*
X153961905Y-81752381D01*
X153961905Y-81904762D01*
X153923810Y-81980953D01*
X153847619Y-82019048D01*
X153809524Y-82019048D01*
X153733333Y-81980953D01*
X153695238Y-81904762D01*
X153695238Y-81790477D01*
X153657143Y-81714286D01*
X153580952Y-81676191D01*
X153542857Y-81676191D01*
X153466667Y-81714286D01*
X153428571Y-81790477D01*
X153428571Y-81904762D01*
X153466667Y-81980953D01*
X153923810Y-82666667D02*
X153961905Y-82590477D01*
X153961905Y-82438096D01*
X153923810Y-82361905D01*
X153847619Y-82323810D01*
X153542857Y-82323810D01*
X153466667Y-82361905D01*
X153428571Y-82438096D01*
X153428571Y-82590477D01*
X153466667Y-82666667D01*
X153542857Y-82704762D01*
X153619048Y-82704762D01*
X153695238Y-82323810D01*
X153961905Y-83390476D02*
X153161905Y-83390476D01*
X153923810Y-83390476D02*
X153961905Y-83314286D01*
X153961905Y-83161905D01*
X153923810Y-83085714D01*
X153885714Y-83047619D01*
X153809524Y-83009524D01*
X153580952Y-83009524D01*
X153504762Y-83047619D01*
X153466667Y-83085714D01*
X153428571Y-83161905D01*
X153428571Y-83314286D01*
X153466667Y-83390476D01*
X153961905Y-84495239D02*
X153923810Y-84419048D01*
X153885714Y-84380953D01*
X153809524Y-84342858D01*
X153580952Y-84342858D01*
X153504762Y-84380953D01*
X153466667Y-84419048D01*
X153428571Y-84495239D01*
X153428571Y-84609525D01*
X153466667Y-84685715D01*
X153504762Y-84723810D01*
X153580952Y-84761906D01*
X153809524Y-84761906D01*
X153885714Y-84723810D01*
X153923810Y-84685715D01*
X153961905Y-84609525D01*
X153961905Y-84495239D01*
X153428571Y-85104763D02*
X153961905Y-85104763D01*
X153504762Y-85104763D02*
X153466667Y-85142858D01*
X153428571Y-85219049D01*
X153428571Y-85333335D01*
X153466667Y-85409525D01*
X153542857Y-85447620D01*
X153961905Y-85447620D01*
X153733333Y-86400002D02*
X153733333Y-86780954D01*
X153961905Y-86323811D02*
X153161905Y-86590478D01*
X153961905Y-86857145D01*
X153961905Y-87123811D02*
X153428571Y-87123811D01*
X153580952Y-87123811D02*
X153504762Y-87161906D01*
X153466667Y-87200002D01*
X153428571Y-87276192D01*
X153428571Y-87352383D01*
X153961905Y-87961906D02*
X153161905Y-87961906D01*
X153923810Y-87961906D02*
X153961905Y-87885716D01*
X153961905Y-87733335D01*
X153923810Y-87657144D01*
X153885714Y-87619049D01*
X153809524Y-87580954D01*
X153580952Y-87580954D01*
X153504762Y-87619049D01*
X153466667Y-87657144D01*
X153428571Y-87733335D01*
X153428571Y-87885716D01*
X153466667Y-87961906D01*
X153428571Y-88685716D02*
X153961905Y-88685716D01*
X153428571Y-88342859D02*
X153847619Y-88342859D01*
X153923810Y-88380954D01*
X153961905Y-88457145D01*
X153961905Y-88571431D01*
X153923810Y-88647621D01*
X153885714Y-88685716D01*
X153961905Y-89066669D02*
X153428571Y-89066669D01*
X153161905Y-89066669D02*
X153200000Y-89028574D01*
X153238095Y-89066669D01*
X153200000Y-89104764D01*
X153161905Y-89066669D01*
X153238095Y-89066669D01*
X153428571Y-89333335D02*
X153428571Y-89638097D01*
X153161905Y-89447621D02*
X153847619Y-89447621D01*
X153923810Y-89485716D01*
X153961905Y-89561907D01*
X153961905Y-89638097D01*
X153961905Y-90247621D02*
X153542857Y-90247621D01*
X153466667Y-90209526D01*
X153428571Y-90133336D01*
X153428571Y-89980955D01*
X153466667Y-89904764D01*
X153923810Y-90247621D02*
X153961905Y-90171431D01*
X153961905Y-89980955D01*
X153923810Y-89904764D01*
X153847619Y-89866669D01*
X153771429Y-89866669D01*
X153695238Y-89904764D01*
X153657143Y-89980955D01*
X153657143Y-90171431D01*
X153619048Y-90247621D01*
X153428571Y-90628574D02*
X154228571Y-90628574D01*
X153466667Y-90628574D02*
X153428571Y-90704765D01*
X153428571Y-90857146D01*
X153466667Y-90933336D01*
X153504762Y-90971431D01*
X153580952Y-91009527D01*
X153809524Y-91009527D01*
X153885714Y-90971431D01*
X153923810Y-90933336D01*
X153961905Y-90857146D01*
X153961905Y-90704765D01*
X153923810Y-90628574D01*
X153923810Y-91657146D02*
X153961905Y-91580956D01*
X153961905Y-91428575D01*
X153923810Y-91352384D01*
X153847619Y-91314289D01*
X153542857Y-91314289D01*
X153466667Y-91352384D01*
X153428571Y-91428575D01*
X153428571Y-91580956D01*
X153466667Y-91657146D01*
X153542857Y-91695241D01*
X153619048Y-91695241D01*
X153695238Y-91314289D01*
X153123810Y-92609527D02*
X154152381Y-91923812D01*
X153885714Y-93333336D02*
X153923810Y-93295241D01*
X153961905Y-93180955D01*
X153961905Y-93104765D01*
X153923810Y-92990479D01*
X153847619Y-92914288D01*
X153771429Y-92876193D01*
X153619048Y-92838098D01*
X153504762Y-92838098D01*
X153352381Y-92876193D01*
X153276190Y-92914288D01*
X153200000Y-92990479D01*
X153161905Y-93104765D01*
X153161905Y-93180955D01*
X153200000Y-93295241D01*
X153238095Y-93333336D01*
X153733333Y-93638098D02*
X153733333Y-94019050D01*
X153961905Y-93561907D02*
X153161905Y-93828574D01*
X153961905Y-94095241D01*
X153923810Y-94323812D02*
X153961905Y-94438098D01*
X153961905Y-94628574D01*
X153923810Y-94704764D01*
X153885714Y-94742860D01*
X153809524Y-94780955D01*
X153733333Y-94780955D01*
X153657143Y-94742860D01*
X153619048Y-94704764D01*
X153580952Y-94628574D01*
X153542857Y-94476193D01*
X153504762Y-94400002D01*
X153466667Y-94361907D01*
X153390476Y-94323812D01*
X153314286Y-94323812D01*
X153238095Y-94361907D01*
X153200000Y-94400002D01*
X153161905Y-94476193D01*
X153161905Y-94666669D01*
X153200000Y-94780955D01*
X153961905Y-95123812D02*
X153161905Y-95123812D01*
X153161905Y-95314288D01*
X153200000Y-95428574D01*
X153276190Y-95504765D01*
X153352381Y-95542860D01*
X153504762Y-95580955D01*
X153619048Y-95580955D01*
X153771429Y-95542860D01*
X153847619Y-95504765D01*
X153923810Y-95428574D01*
X153961905Y-95314288D01*
X153961905Y-95123812D01*
X153428571Y-96266669D02*
X153961905Y-96266669D01*
X153428571Y-95923812D02*
X153847619Y-95923812D01*
X153923810Y-95961907D01*
X153961905Y-96038098D01*
X153961905Y-96152384D01*
X153923810Y-96228574D01*
X153885714Y-96266669D01*
X153961905Y-96647622D02*
X153428571Y-96647622D01*
X153161905Y-96647622D02*
X153200000Y-96609527D01*
X153238095Y-96647622D01*
X153200000Y-96685717D01*
X153161905Y-96647622D01*
X153238095Y-96647622D01*
X153428571Y-97028574D02*
X153961905Y-97028574D01*
X153504762Y-97028574D02*
X153466667Y-97066669D01*
X153428571Y-97142860D01*
X153428571Y-97257146D01*
X153466667Y-97333336D01*
X153542857Y-97371431D01*
X153961905Y-97371431D01*
X153961905Y-97866670D02*
X153923810Y-97790479D01*
X153885714Y-97752384D01*
X153809524Y-97714289D01*
X153580952Y-97714289D01*
X153504762Y-97752384D01*
X153466667Y-97790479D01*
X153428571Y-97866670D01*
X153428571Y-97980956D01*
X153466667Y-98057146D01*
X153504762Y-98095241D01*
X153580952Y-98133337D01*
X153809524Y-98133337D01*
X153885714Y-98095241D01*
X153923810Y-98057146D01*
X153961905Y-97980956D01*
X153961905Y-97866670D01*
X153123810Y-99047623D02*
X154152381Y-98361908D01*
X153161905Y-99200003D02*
X153161905Y-99657146D01*
X153961905Y-99428575D02*
X153161905Y-99428575D01*
X153161905Y-99847623D02*
X153161905Y-100380956D01*
X153961905Y-99847623D01*
X153961905Y-100380956D01*
X153161905Y-100609528D02*
X153961905Y-101142861D01*
X153161905Y-101142861D02*
X153961905Y-100609528D01*
X153961905Y-101447623D02*
X153161905Y-101447623D01*
X153161905Y-101638099D01*
X153200000Y-101752385D01*
X153276190Y-101828576D01*
X153352381Y-101866671D01*
X153504762Y-101904766D01*
X153619048Y-101904766D01*
X153771429Y-101866671D01*
X153847619Y-101828576D01*
X153923810Y-101752385D01*
X153961905Y-101638099D01*
X153961905Y-101447623D01*
X153428571Y-102590480D02*
X153961905Y-102590480D01*
X153428571Y-102247623D02*
X153847619Y-102247623D01*
X153923810Y-102285718D01*
X153961905Y-102361909D01*
X153961905Y-102476195D01*
X153923810Y-102552385D01*
X153885714Y-102590480D01*
X153961905Y-102971433D02*
X153428571Y-102971433D01*
X153161905Y-102971433D02*
X153200000Y-102933338D01*
X153238095Y-102971433D01*
X153200000Y-103009528D01*
X153161905Y-102971433D01*
X153238095Y-102971433D01*
X153428571Y-103352385D02*
X153961905Y-103352385D01*
X153504762Y-103352385D02*
X153466667Y-103390480D01*
X153428571Y-103466671D01*
X153428571Y-103580957D01*
X153466667Y-103657147D01*
X153542857Y-103695242D01*
X153961905Y-103695242D01*
X153961905Y-104190481D02*
X153923810Y-104114290D01*
X153885714Y-104076195D01*
X153809524Y-104038100D01*
X153580952Y-104038100D01*
X153504762Y-104076195D01*
X153466667Y-104114290D01*
X153428571Y-104190481D01*
X153428571Y-104304767D01*
X153466667Y-104380957D01*
X153504762Y-104419052D01*
X153580952Y-104457148D01*
X153809524Y-104457148D01*
X153885714Y-104419052D01*
X153923810Y-104380957D01*
X153961905Y-104304767D01*
X153961905Y-104190481D01*
X155361905Y-80190476D02*
X154561905Y-80190476D01*
X154866667Y-80190476D02*
X154828571Y-80266667D01*
X154828571Y-80419048D01*
X154866667Y-80495238D01*
X154904762Y-80533333D01*
X154980952Y-80571429D01*
X155209524Y-80571429D01*
X155285714Y-80533333D01*
X155323810Y-80495238D01*
X155361905Y-80419048D01*
X155361905Y-80266667D01*
X155323810Y-80190476D01*
X154828571Y-80838096D02*
X155361905Y-81028572D01*
X154828571Y-81219048D02*
X155361905Y-81028572D01*
X155552381Y-80952381D01*
X155590476Y-80914286D01*
X155628571Y-80838096D01*
X155361905Y-82133334D02*
X154561905Y-82133334D01*
X154561905Y-82323810D01*
X154600000Y-82438096D01*
X154676190Y-82514287D01*
X154752381Y-82552382D01*
X154904762Y-82590477D01*
X155019048Y-82590477D01*
X155171429Y-82552382D01*
X155247619Y-82514287D01*
X155323810Y-82438096D01*
X155361905Y-82323810D01*
X155361905Y-82133334D01*
X154828571Y-83276191D02*
X155361905Y-83276191D01*
X154828571Y-82933334D02*
X155247619Y-82933334D01*
X155323810Y-82971429D01*
X155361905Y-83047620D01*
X155361905Y-83161906D01*
X155323810Y-83238096D01*
X155285714Y-83276191D01*
X154828571Y-83657144D02*
X155361905Y-83657144D01*
X154904762Y-83657144D02*
X154866667Y-83695239D01*
X154828571Y-83771430D01*
X154828571Y-83885716D01*
X154866667Y-83961906D01*
X154942857Y-84000001D01*
X155361905Y-84000001D01*
X155323810Y-84723811D02*
X155361905Y-84647621D01*
X155361905Y-84495240D01*
X155323810Y-84419049D01*
X155285714Y-84380954D01*
X155209524Y-84342859D01*
X154980952Y-84342859D01*
X154904762Y-84380954D01*
X154866667Y-84419049D01*
X154828571Y-84495240D01*
X154828571Y-84647621D01*
X154866667Y-84723811D01*
X155361905Y-85409525D02*
X154942857Y-85409525D01*
X154866667Y-85371430D01*
X154828571Y-85295240D01*
X154828571Y-85142859D01*
X154866667Y-85066668D01*
X155323810Y-85409525D02*
X155361905Y-85333335D01*
X155361905Y-85142859D01*
X155323810Y-85066668D01*
X155247619Y-85028573D01*
X155171429Y-85028573D01*
X155095238Y-85066668D01*
X155057143Y-85142859D01*
X155057143Y-85333335D01*
X155019048Y-85409525D01*
X154828571Y-85790478D02*
X155361905Y-85790478D01*
X154904762Y-85790478D02*
X154866667Y-85828573D01*
X154828571Y-85904764D01*
X154828571Y-86019050D01*
X154866667Y-86095240D01*
X154942857Y-86133335D01*
X155361905Y-86133335D01*
X154942857Y-87123812D02*
X154942857Y-87390479D01*
X155361905Y-87504765D02*
X155361905Y-87123812D01*
X154561905Y-87123812D01*
X154561905Y-87504765D01*
X155361905Y-88190479D02*
X154561905Y-88190479D01*
X155323810Y-88190479D02*
X155361905Y-88114289D01*
X155361905Y-87961908D01*
X155323810Y-87885717D01*
X155285714Y-87847622D01*
X155209524Y-87809527D01*
X154980952Y-87809527D01*
X154904762Y-87847622D01*
X154866667Y-87885717D01*
X154828571Y-87961908D01*
X154828571Y-88114289D01*
X154866667Y-88190479D01*
X154828571Y-88495242D02*
X155361905Y-88647623D01*
X154980952Y-88800004D01*
X155361905Y-88952385D01*
X154828571Y-89104766D01*
X155361905Y-89752384D02*
X154942857Y-89752384D01*
X154866667Y-89714289D01*
X154828571Y-89638099D01*
X154828571Y-89485718D01*
X154866667Y-89409527D01*
X155323810Y-89752384D02*
X155361905Y-89676194D01*
X155361905Y-89485718D01*
X155323810Y-89409527D01*
X155247619Y-89371432D01*
X155171429Y-89371432D01*
X155095238Y-89409527D01*
X155057143Y-89485718D01*
X155057143Y-89676194D01*
X155019048Y-89752384D01*
X155361905Y-90133337D02*
X154828571Y-90133337D01*
X154980952Y-90133337D02*
X154904762Y-90171432D01*
X154866667Y-90209528D01*
X154828571Y-90285718D01*
X154828571Y-90361909D01*
X155361905Y-90971432D02*
X154561905Y-90971432D01*
X155323810Y-90971432D02*
X155361905Y-90895242D01*
X155361905Y-90742861D01*
X155323810Y-90666670D01*
X155285714Y-90628575D01*
X155209524Y-90590480D01*
X154980952Y-90590480D01*
X154904762Y-90628575D01*
X154866667Y-90666670D01*
X154828571Y-90742861D01*
X154828571Y-90895242D01*
X154866667Y-90971432D01*
X155323810Y-91314290D02*
X155361905Y-91390480D01*
X155361905Y-91542861D01*
X155323810Y-91619052D01*
X155247619Y-91657147D01*
X155209524Y-91657147D01*
X155133333Y-91619052D01*
X155095238Y-91542861D01*
X155095238Y-91428576D01*
X155057143Y-91352385D01*
X154980952Y-91314290D01*
X154942857Y-91314290D01*
X154866667Y-91352385D01*
X154828571Y-91428576D01*
X154828571Y-91542861D01*
X154866667Y-91619052D01*
X155361905Y-93257147D02*
X155361905Y-93219052D01*
X155323810Y-93142862D01*
X155209524Y-93028576D01*
X154980952Y-92838100D01*
X154866667Y-92761909D01*
X154752381Y-92723814D01*
X154676190Y-92723814D01*
X154600000Y-92761909D01*
X154561905Y-92838100D01*
X154561905Y-92876195D01*
X154600000Y-92952385D01*
X154676190Y-92990481D01*
X154714286Y-92990481D01*
X154790476Y-92952385D01*
X154828571Y-92914290D01*
X154980952Y-92685719D01*
X155019048Y-92647623D01*
X155095238Y-92609528D01*
X155209524Y-92609528D01*
X155285714Y-92647623D01*
X155323810Y-92685719D01*
X155361905Y-92761909D01*
X155361905Y-92876195D01*
X155323810Y-92952385D01*
X155285714Y-92990481D01*
X155133333Y-93104766D01*
X155019048Y-93142862D01*
X154942857Y-93142862D01*
X155133333Y-94171433D02*
X155133333Y-94552385D01*
X155361905Y-94095242D02*
X154561905Y-94361909D01*
X155361905Y-94628576D01*
X154828571Y-94895242D02*
X155361905Y-94895242D01*
X154904762Y-94895242D02*
X154866667Y-94933337D01*
X154828571Y-95009528D01*
X154828571Y-95123814D01*
X154866667Y-95200004D01*
X154942857Y-95238099D01*
X155361905Y-95238099D01*
X155361905Y-95961909D02*
X154561905Y-95961909D01*
X155323810Y-95961909D02*
X155361905Y-95885719D01*
X155361905Y-95733338D01*
X155323810Y-95657147D01*
X155285714Y-95619052D01*
X155209524Y-95580957D01*
X154980952Y-95580957D01*
X154904762Y-95619052D01*
X154866667Y-95657147D01*
X154828571Y-95733338D01*
X154828571Y-95885719D01*
X154866667Y-95961909D01*
X155361905Y-96342862D02*
X154828571Y-96342862D01*
X154980952Y-96342862D02*
X154904762Y-96380957D01*
X154866667Y-96419053D01*
X154828571Y-96495243D01*
X154828571Y-96571434D01*
X155323810Y-97142862D02*
X155361905Y-97066672D01*
X155361905Y-96914291D01*
X155323810Y-96838100D01*
X155247619Y-96800005D01*
X154942857Y-96800005D01*
X154866667Y-96838100D01*
X154828571Y-96914291D01*
X154828571Y-97066672D01*
X154866667Y-97142862D01*
X154942857Y-97180957D01*
X155019048Y-97180957D01*
X155095238Y-96800005D01*
X154828571Y-97447624D02*
X155361905Y-97600005D01*
X154980952Y-97752386D01*
X155361905Y-97904767D01*
X154828571Y-98057148D01*
X154942857Y-99238100D02*
X154980952Y-99352386D01*
X155019048Y-99390481D01*
X155095238Y-99428576D01*
X155209524Y-99428576D01*
X155285714Y-99390481D01*
X155323810Y-99352386D01*
X155361905Y-99276195D01*
X155361905Y-98971433D01*
X154561905Y-98971433D01*
X154561905Y-99238100D01*
X154600000Y-99314290D01*
X154638095Y-99352386D01*
X154714286Y-99390481D01*
X154790476Y-99390481D01*
X154866667Y-99352386D01*
X154904762Y-99314290D01*
X154942857Y-99238100D01*
X154942857Y-98971433D01*
X155323810Y-100076195D02*
X155361905Y-100000005D01*
X155361905Y-99847624D01*
X155323810Y-99771433D01*
X155247619Y-99733338D01*
X154942857Y-99733338D01*
X154866667Y-99771433D01*
X154828571Y-99847624D01*
X154828571Y-100000005D01*
X154866667Y-100076195D01*
X154942857Y-100114290D01*
X155019048Y-100114290D01*
X155095238Y-99733338D01*
X155323810Y-100761909D02*
X155361905Y-100685719D01*
X155361905Y-100533338D01*
X155323810Y-100457147D01*
X155247619Y-100419052D01*
X154942857Y-100419052D01*
X154866667Y-100457147D01*
X154828571Y-100533338D01*
X154828571Y-100685719D01*
X154866667Y-100761909D01*
X154942857Y-100800004D01*
X155019048Y-100800004D01*
X155095238Y-100419052D01*
X155361905Y-101142861D02*
X154828571Y-101142861D01*
X154980952Y-101142861D02*
X154904762Y-101180956D01*
X154866667Y-101219052D01*
X154828571Y-101295242D01*
X154828571Y-101371433D01*
X156761905Y-80190476D02*
X155961905Y-80190476D01*
X156761905Y-80533333D02*
X156342857Y-80533333D01*
X156266667Y-80495238D01*
X156228571Y-80419048D01*
X156228571Y-80304762D01*
X156266667Y-80228571D01*
X156304762Y-80190476D01*
X156228571Y-80800000D02*
X156228571Y-81104762D01*
X155961905Y-80914286D02*
X156647619Y-80914286D01*
X156723810Y-80952381D01*
X156761905Y-81028572D01*
X156761905Y-81104762D01*
X156228571Y-81257143D02*
X156228571Y-81561905D01*
X155961905Y-81371429D02*
X156647619Y-81371429D01*
X156723810Y-81409524D01*
X156761905Y-81485715D01*
X156761905Y-81561905D01*
X156228571Y-81828572D02*
X157028571Y-81828572D01*
X156266667Y-81828572D02*
X156228571Y-81904763D01*
X156228571Y-82057144D01*
X156266667Y-82133334D01*
X156304762Y-82171429D01*
X156380952Y-82209525D01*
X156609524Y-82209525D01*
X156685714Y-82171429D01*
X156723810Y-82133334D01*
X156761905Y-82057144D01*
X156761905Y-81904763D01*
X156723810Y-81828572D01*
X156685714Y-82552382D02*
X156723810Y-82590477D01*
X156761905Y-82552382D01*
X156723810Y-82514287D01*
X156685714Y-82552382D01*
X156761905Y-82552382D01*
X156266667Y-82552382D02*
X156304762Y-82590477D01*
X156342857Y-82552382D01*
X156304762Y-82514287D01*
X156266667Y-82552382D01*
X156342857Y-82552382D01*
X155923810Y-83504763D02*
X156952381Y-82819048D01*
X155923810Y-84342858D02*
X156952381Y-83657143D01*
X156761905Y-84952381D02*
X156342857Y-84952381D01*
X156266667Y-84914286D01*
X156228571Y-84838096D01*
X156228571Y-84685715D01*
X156266667Y-84609524D01*
X156723810Y-84952381D02*
X156761905Y-84876191D01*
X156761905Y-84685715D01*
X156723810Y-84609524D01*
X156647619Y-84571429D01*
X156571429Y-84571429D01*
X156495238Y-84609524D01*
X156457143Y-84685715D01*
X156457143Y-84876191D01*
X156419048Y-84952381D01*
X156761905Y-85333334D02*
X156228571Y-85333334D01*
X156380952Y-85333334D02*
X156304762Y-85371429D01*
X156266667Y-85409525D01*
X156228571Y-85485715D01*
X156228571Y-85561906D01*
X156761905Y-86171429D02*
X155961905Y-86171429D01*
X156723810Y-86171429D02*
X156761905Y-86095239D01*
X156761905Y-85942858D01*
X156723810Y-85866667D01*
X156685714Y-85828572D01*
X156609524Y-85790477D01*
X156380952Y-85790477D01*
X156304762Y-85828572D01*
X156266667Y-85866667D01*
X156228571Y-85942858D01*
X156228571Y-86095239D01*
X156266667Y-86171429D01*
X156228571Y-86895239D02*
X156761905Y-86895239D01*
X156228571Y-86552382D02*
X156647619Y-86552382D01*
X156723810Y-86590477D01*
X156761905Y-86666668D01*
X156761905Y-86780954D01*
X156723810Y-86857144D01*
X156685714Y-86895239D01*
X156761905Y-87276192D02*
X156228571Y-87276192D01*
X155961905Y-87276192D02*
X156000000Y-87238097D01*
X156038095Y-87276192D01*
X156000000Y-87314287D01*
X155961905Y-87276192D01*
X156038095Y-87276192D01*
X156228571Y-87542858D02*
X156228571Y-87847620D01*
X155961905Y-87657144D02*
X156647619Y-87657144D01*
X156723810Y-87695239D01*
X156761905Y-87771430D01*
X156761905Y-87847620D01*
X156761905Y-88457144D02*
X156342857Y-88457144D01*
X156266667Y-88419049D01*
X156228571Y-88342859D01*
X156228571Y-88190478D01*
X156266667Y-88114287D01*
X156723810Y-88457144D02*
X156761905Y-88380954D01*
X156761905Y-88190478D01*
X156723810Y-88114287D01*
X156647619Y-88076192D01*
X156571429Y-88076192D01*
X156495238Y-88114287D01*
X156457143Y-88190478D01*
X156457143Y-88380954D01*
X156419048Y-88457144D01*
X156228571Y-88838097D02*
X157028571Y-88838097D01*
X156266667Y-88838097D02*
X156228571Y-88914288D01*
X156228571Y-89066669D01*
X156266667Y-89142859D01*
X156304762Y-89180954D01*
X156380952Y-89219050D01*
X156609524Y-89219050D01*
X156685714Y-89180954D01*
X156723810Y-89142859D01*
X156761905Y-89066669D01*
X156761905Y-88914288D01*
X156723810Y-88838097D01*
X156723810Y-89866669D02*
X156761905Y-89790479D01*
X156761905Y-89638098D01*
X156723810Y-89561907D01*
X156647619Y-89523812D01*
X156342857Y-89523812D01*
X156266667Y-89561907D01*
X156228571Y-89638098D01*
X156228571Y-89790479D01*
X156266667Y-89866669D01*
X156342857Y-89904764D01*
X156419048Y-89904764D01*
X156495238Y-89523812D01*
X156761905Y-90247621D02*
X156228571Y-90247621D01*
X156304762Y-90247621D02*
X156266667Y-90285716D01*
X156228571Y-90361907D01*
X156228571Y-90476193D01*
X156266667Y-90552383D01*
X156342857Y-90590478D01*
X156761905Y-90590478D01*
X156342857Y-90590478D02*
X156266667Y-90628574D01*
X156228571Y-90704764D01*
X156228571Y-90819050D01*
X156266667Y-90895240D01*
X156342857Y-90933335D01*
X156761905Y-90933335D01*
X156761905Y-91657145D02*
X156342857Y-91657145D01*
X156266667Y-91619050D01*
X156228571Y-91542860D01*
X156228571Y-91390479D01*
X156266667Y-91314288D01*
X156723810Y-91657145D02*
X156761905Y-91580955D01*
X156761905Y-91390479D01*
X156723810Y-91314288D01*
X156647619Y-91276193D01*
X156571429Y-91276193D01*
X156495238Y-91314288D01*
X156457143Y-91390479D01*
X156457143Y-91580955D01*
X156419048Y-91657145D01*
X156761905Y-92038098D02*
X156228571Y-92038098D01*
X156380952Y-92038098D02*
X156304762Y-92076193D01*
X156266667Y-92114289D01*
X156228571Y-92190479D01*
X156228571Y-92266670D01*
X156761905Y-92533336D02*
X155961905Y-92533336D01*
X156457143Y-92609527D02*
X156761905Y-92838098D01*
X156228571Y-92838098D02*
X156533333Y-92533336D01*
X156761905Y-93180955D02*
X156228571Y-93180955D01*
X155961905Y-93180955D02*
X156000000Y-93142860D01*
X156038095Y-93180955D01*
X156000000Y-93219050D01*
X155961905Y-93180955D01*
X156038095Y-93180955D01*
X156761905Y-93561907D02*
X156228571Y-93561907D01*
X155961905Y-93561907D02*
X156000000Y-93523812D01*
X156038095Y-93561907D01*
X156000000Y-93600002D01*
X155961905Y-93561907D01*
X156038095Y-93561907D01*
X156685714Y-93942859D02*
X156723810Y-93980954D01*
X156761905Y-93942859D01*
X156723810Y-93904764D01*
X156685714Y-93942859D01*
X156761905Y-93942859D01*
X156761905Y-94323811D02*
X155961905Y-94323811D01*
X156266667Y-94323811D02*
X156228571Y-94400002D01*
X156228571Y-94552383D01*
X156266667Y-94628573D01*
X156304762Y-94666668D01*
X156380952Y-94704764D01*
X156609524Y-94704764D01*
X156685714Y-94666668D01*
X156723810Y-94628573D01*
X156761905Y-94552383D01*
X156761905Y-94400002D01*
X156723810Y-94323811D01*
X156761905Y-95161907D02*
X156723810Y-95085716D01*
X156647619Y-95047621D01*
X155961905Y-95047621D01*
X156761905Y-95580955D02*
X156723810Y-95504764D01*
X156685714Y-95466669D01*
X156609524Y-95428574D01*
X156380952Y-95428574D01*
X156304762Y-95466669D01*
X156266667Y-95504764D01*
X156228571Y-95580955D01*
X156228571Y-95695241D01*
X156266667Y-95771431D01*
X156304762Y-95809526D01*
X156380952Y-95847622D01*
X156609524Y-95847622D01*
X156685714Y-95809526D01*
X156723810Y-95771431D01*
X156761905Y-95695241D01*
X156761905Y-95580955D01*
X156228571Y-96533336D02*
X156876190Y-96533336D01*
X156952381Y-96495241D01*
X156990476Y-96457146D01*
X157028571Y-96380955D01*
X157028571Y-96266670D01*
X156990476Y-96190479D01*
X156723810Y-96533336D02*
X156761905Y-96457146D01*
X156761905Y-96304765D01*
X156723810Y-96228574D01*
X156685714Y-96190479D01*
X156609524Y-96152384D01*
X156380952Y-96152384D01*
X156304762Y-96190479D01*
X156266667Y-96228574D01*
X156228571Y-96304765D01*
X156228571Y-96457146D01*
X156266667Y-96533336D01*
X156723810Y-96876194D02*
X156761905Y-96952384D01*
X156761905Y-97104765D01*
X156723810Y-97180956D01*
X156647619Y-97219051D01*
X156609524Y-97219051D01*
X156533333Y-97180956D01*
X156495238Y-97104765D01*
X156495238Y-96990480D01*
X156457143Y-96914289D01*
X156380952Y-96876194D01*
X156342857Y-96876194D01*
X156266667Y-96914289D01*
X156228571Y-96990480D01*
X156228571Y-97104765D01*
X156266667Y-97180956D01*
X156228571Y-97561908D02*
X157028571Y-97561908D01*
X156266667Y-97561908D02*
X156228571Y-97638099D01*
X156228571Y-97790480D01*
X156266667Y-97866670D01*
X156304762Y-97904765D01*
X156380952Y-97942861D01*
X156609524Y-97942861D01*
X156685714Y-97904765D01*
X156723810Y-97866670D01*
X156761905Y-97790480D01*
X156761905Y-97638099D01*
X156723810Y-97561908D01*
X156761905Y-98400004D02*
X156723810Y-98323813D01*
X156685714Y-98285718D01*
X156609524Y-98247623D01*
X156380952Y-98247623D01*
X156304762Y-98285718D01*
X156266667Y-98323813D01*
X156228571Y-98400004D01*
X156228571Y-98514290D01*
X156266667Y-98590480D01*
X156304762Y-98628575D01*
X156380952Y-98666671D01*
X156609524Y-98666671D01*
X156685714Y-98628575D01*
X156723810Y-98590480D01*
X156761905Y-98514290D01*
X156761905Y-98400004D01*
X156228571Y-98895242D02*
X156228571Y-99200004D01*
X155961905Y-99009528D02*
X156647619Y-99009528D01*
X156723810Y-99047623D01*
X156761905Y-99123814D01*
X156761905Y-99200004D01*
X156685714Y-99466671D02*
X156723810Y-99504766D01*
X156761905Y-99466671D01*
X156723810Y-99428576D01*
X156685714Y-99466671D01*
X156761905Y-99466671D01*
X156723810Y-100190480D02*
X156761905Y-100114290D01*
X156761905Y-99961909D01*
X156723810Y-99885718D01*
X156685714Y-99847623D01*
X156609524Y-99809528D01*
X156380952Y-99809528D01*
X156304762Y-99847623D01*
X156266667Y-99885718D01*
X156228571Y-99961909D01*
X156228571Y-100114290D01*
X156266667Y-100190480D01*
X156761905Y-100647623D02*
X156723810Y-100571432D01*
X156685714Y-100533337D01*
X156609524Y-100495242D01*
X156380952Y-100495242D01*
X156304762Y-100533337D01*
X156266667Y-100571432D01*
X156228571Y-100647623D01*
X156228571Y-100761909D01*
X156266667Y-100838099D01*
X156304762Y-100876194D01*
X156380952Y-100914290D01*
X156609524Y-100914290D01*
X156685714Y-100876194D01*
X156723810Y-100838099D01*
X156761905Y-100761909D01*
X156761905Y-100647623D01*
X156685714Y-101257147D02*
X156723810Y-101295242D01*
X156761905Y-101257147D01*
X156723810Y-101219052D01*
X156685714Y-101257147D01*
X156761905Y-101257147D01*
X156228571Y-101980956D02*
X156761905Y-101980956D01*
X156228571Y-101638099D02*
X156647619Y-101638099D01*
X156723810Y-101676194D01*
X156761905Y-101752385D01*
X156761905Y-101866671D01*
X156723810Y-101942861D01*
X156685714Y-101980956D01*
X156761905Y-102361909D02*
X155961905Y-102361909D01*
X156457143Y-102438100D02*
X156761905Y-102666671D01*
X156228571Y-102666671D02*
X156533333Y-102361909D01*
X155923810Y-103580957D02*
X156952381Y-102895242D01*
X149361905Y-80076190D02*
X149361905Y-80533333D01*
X150161905Y-80304762D02*
X149361905Y-80304762D01*
X149361905Y-80723810D02*
X149361905Y-81257143D01*
X150161905Y-80723810D01*
X150161905Y-81257143D01*
X149361905Y-81485715D02*
X150161905Y-82019048D01*
X149361905Y-82019048D02*
X150161905Y-81485715D01*
X150161905Y-82323810D02*
X149361905Y-82323810D01*
X149361905Y-82514286D01*
X149400000Y-82628572D01*
X149476190Y-82704763D01*
X149552381Y-82742858D01*
X149704762Y-82780953D01*
X149819048Y-82780953D01*
X149971429Y-82742858D01*
X150047619Y-82704763D01*
X150123810Y-82628572D01*
X150161905Y-82514286D01*
X150161905Y-82323810D01*
X149628571Y-83466667D02*
X150161905Y-83466667D01*
X149628571Y-83123810D02*
X150047619Y-83123810D01*
X150123810Y-83161905D01*
X150161905Y-83238096D01*
X150161905Y-83352382D01*
X150123810Y-83428572D01*
X150085714Y-83466667D01*
X150161905Y-83847620D02*
X149628571Y-83847620D01*
X149361905Y-83847620D02*
X149400000Y-83809525D01*
X149438095Y-83847620D01*
X149400000Y-83885715D01*
X149361905Y-83847620D01*
X149438095Y-83847620D01*
X149628571Y-84228572D02*
X150161905Y-84228572D01*
X149704762Y-84228572D02*
X149666667Y-84266667D01*
X149628571Y-84342858D01*
X149628571Y-84457144D01*
X149666667Y-84533334D01*
X149742857Y-84571429D01*
X150161905Y-84571429D01*
X150161905Y-85066668D02*
X150123810Y-84990477D01*
X150085714Y-84952382D01*
X150009524Y-84914287D01*
X149780952Y-84914287D01*
X149704762Y-84952382D01*
X149666667Y-84990477D01*
X149628571Y-85066668D01*
X149628571Y-85180954D01*
X149666667Y-85257144D01*
X149704762Y-85295239D01*
X149780952Y-85333335D01*
X150009524Y-85333335D01*
X150085714Y-85295239D01*
X150123810Y-85257144D01*
X150161905Y-85180954D01*
X150161905Y-85066668D01*
X150085714Y-86742859D02*
X150123810Y-86704764D01*
X150161905Y-86590478D01*
X150161905Y-86514288D01*
X150123810Y-86400002D01*
X150047619Y-86323811D01*
X149971429Y-86285716D01*
X149819048Y-86247621D01*
X149704762Y-86247621D01*
X149552381Y-86285716D01*
X149476190Y-86323811D01*
X149400000Y-86400002D01*
X149361905Y-86514288D01*
X149361905Y-86590478D01*
X149400000Y-86704764D01*
X149438095Y-86742859D01*
X150161905Y-87200002D02*
X150123810Y-87123811D01*
X150085714Y-87085716D01*
X150009524Y-87047621D01*
X149780952Y-87047621D01*
X149704762Y-87085716D01*
X149666667Y-87123811D01*
X149628571Y-87200002D01*
X149628571Y-87314288D01*
X149666667Y-87390478D01*
X149704762Y-87428573D01*
X149780952Y-87466669D01*
X150009524Y-87466669D01*
X150085714Y-87428573D01*
X150123810Y-87390478D01*
X150161905Y-87314288D01*
X150161905Y-87200002D01*
X150161905Y-87809526D02*
X149628571Y-87809526D01*
X149704762Y-87809526D02*
X149666667Y-87847621D01*
X149628571Y-87923812D01*
X149628571Y-88038098D01*
X149666667Y-88114288D01*
X149742857Y-88152383D01*
X150161905Y-88152383D01*
X149742857Y-88152383D02*
X149666667Y-88190479D01*
X149628571Y-88266669D01*
X149628571Y-88380955D01*
X149666667Y-88457145D01*
X149742857Y-88495240D01*
X150161905Y-88495240D01*
X149628571Y-88876193D02*
X150428571Y-88876193D01*
X149666667Y-88876193D02*
X149628571Y-88952384D01*
X149628571Y-89104765D01*
X149666667Y-89180955D01*
X149704762Y-89219050D01*
X149780952Y-89257146D01*
X150009524Y-89257146D01*
X150085714Y-89219050D01*
X150123810Y-89180955D01*
X150161905Y-89104765D01*
X150161905Y-88952384D01*
X150123810Y-88876193D01*
X150161905Y-89942860D02*
X149742857Y-89942860D01*
X149666667Y-89904765D01*
X149628571Y-89828575D01*
X149628571Y-89676194D01*
X149666667Y-89600003D01*
X150123810Y-89942860D02*
X150161905Y-89866670D01*
X150161905Y-89676194D01*
X150123810Y-89600003D01*
X150047619Y-89561908D01*
X149971429Y-89561908D01*
X149895238Y-89600003D01*
X149857143Y-89676194D01*
X149857143Y-89866670D01*
X149819048Y-89942860D01*
X150123810Y-90666670D02*
X150161905Y-90590480D01*
X150161905Y-90438099D01*
X150123810Y-90361908D01*
X150085714Y-90323813D01*
X150009524Y-90285718D01*
X149780952Y-90285718D01*
X149704762Y-90323813D01*
X149666667Y-90361908D01*
X149628571Y-90438099D01*
X149628571Y-90590480D01*
X149666667Y-90666670D01*
X149628571Y-90895241D02*
X149628571Y-91200003D01*
X149361905Y-91009527D02*
X150047619Y-91009527D01*
X150123810Y-91047622D01*
X150161905Y-91123813D01*
X150161905Y-91200003D01*
X149628571Y-92000004D02*
X150161905Y-92190480D01*
X149628571Y-92380956D01*
X150161905Y-93104766D02*
X150161905Y-92647623D01*
X150161905Y-92876194D02*
X149361905Y-92876194D01*
X149476190Y-92800004D01*
X149552381Y-92723813D01*
X149590476Y-92647623D01*
X150085714Y-93447623D02*
X150123810Y-93485718D01*
X150161905Y-93447623D01*
X150123810Y-93409528D01*
X150085714Y-93447623D01*
X150161905Y-93447623D01*
X149361905Y-93980956D02*
X149361905Y-94057147D01*
X149400000Y-94133337D01*
X149438095Y-94171432D01*
X149514286Y-94209528D01*
X149666667Y-94247623D01*
X149857143Y-94247623D01*
X150009524Y-94209528D01*
X150085714Y-94171432D01*
X150123810Y-94133337D01*
X150161905Y-94057147D01*
X150161905Y-93980956D01*
X150123810Y-93904766D01*
X150085714Y-93866670D01*
X150009524Y-93828575D01*
X149857143Y-93790480D01*
X149666667Y-93790480D01*
X149514286Y-93828575D01*
X149438095Y-93866670D01*
X149400000Y-93904766D01*
X149361905Y-93980956D01*
X150161905Y-95009528D02*
X150161905Y-94552385D01*
X150161905Y-94780956D02*
X149361905Y-94780956D01*
X149476190Y-94704766D01*
X149552381Y-94628575D01*
X149590476Y-94552385D01*
X151561905Y-80190476D02*
X150761905Y-80190476D01*
X151066667Y-80190476D02*
X151028571Y-80266667D01*
X151028571Y-80419048D01*
X151066667Y-80495238D01*
X151104762Y-80533333D01*
X151180952Y-80571429D01*
X151409524Y-80571429D01*
X151485714Y-80533333D01*
X151523810Y-80495238D01*
X151561905Y-80419048D01*
X151561905Y-80266667D01*
X151523810Y-80190476D01*
X151028571Y-80838096D02*
X151561905Y-81028572D01*
X151028571Y-81219048D02*
X151561905Y-81028572D01*
X151752381Y-80952381D01*
X151790476Y-80914286D01*
X151828571Y-80838096D01*
X151523810Y-82095239D02*
X151561905Y-82209525D01*
X151561905Y-82400001D01*
X151523810Y-82476191D01*
X151485714Y-82514287D01*
X151409524Y-82552382D01*
X151333333Y-82552382D01*
X151257143Y-82514287D01*
X151219048Y-82476191D01*
X151180952Y-82400001D01*
X151142857Y-82247620D01*
X151104762Y-82171429D01*
X151066667Y-82133334D01*
X150990476Y-82095239D01*
X150914286Y-82095239D01*
X150838095Y-82133334D01*
X150800000Y-82171429D01*
X150761905Y-82247620D01*
X150761905Y-82438096D01*
X150800000Y-82552382D01*
X151028571Y-82780953D02*
X151028571Y-83085715D01*
X150761905Y-82895239D02*
X151447619Y-82895239D01*
X151523810Y-82933334D01*
X151561905Y-83009525D01*
X151561905Y-83085715D01*
X151523810Y-83657144D02*
X151561905Y-83580954D01*
X151561905Y-83428573D01*
X151523810Y-83352382D01*
X151447619Y-83314287D01*
X151142857Y-83314287D01*
X151066667Y-83352382D01*
X151028571Y-83428573D01*
X151028571Y-83580954D01*
X151066667Y-83657144D01*
X151142857Y-83695239D01*
X151219048Y-83695239D01*
X151295238Y-83314287D01*
X151028571Y-83961906D02*
X151561905Y-84152382D01*
X151028571Y-84342858D01*
X151523810Y-84952382D02*
X151561905Y-84876192D01*
X151561905Y-84723811D01*
X151523810Y-84647620D01*
X151447619Y-84609525D01*
X151142857Y-84609525D01*
X151066667Y-84647620D01*
X151028571Y-84723811D01*
X151028571Y-84876192D01*
X151066667Y-84952382D01*
X151142857Y-84990477D01*
X151219048Y-84990477D01*
X151295238Y-84609525D01*
X151523810Y-85904763D02*
X151561905Y-86019049D01*
X151561905Y-86209525D01*
X151523810Y-86285715D01*
X151485714Y-86323811D01*
X151409524Y-86361906D01*
X151333333Y-86361906D01*
X151257143Y-86323811D01*
X151219048Y-86285715D01*
X151180952Y-86209525D01*
X151142857Y-86057144D01*
X151104762Y-85980953D01*
X151066667Y-85942858D01*
X150990476Y-85904763D01*
X150914286Y-85904763D01*
X150838095Y-85942858D01*
X150800000Y-85980953D01*
X150761905Y-86057144D01*
X150761905Y-86247620D01*
X150800000Y-86361906D01*
X151561905Y-86704763D02*
X151028571Y-86704763D01*
X151104762Y-86704763D02*
X151066667Y-86742858D01*
X151028571Y-86819049D01*
X151028571Y-86933335D01*
X151066667Y-87009525D01*
X151142857Y-87047620D01*
X151561905Y-87047620D01*
X151142857Y-87047620D02*
X151066667Y-87085716D01*
X151028571Y-87161906D01*
X151028571Y-87276192D01*
X151066667Y-87352382D01*
X151142857Y-87390477D01*
X151561905Y-87390477D01*
X151561905Y-87771430D02*
X151028571Y-87771430D01*
X150761905Y-87771430D02*
X150800000Y-87733335D01*
X150838095Y-87771430D01*
X150800000Y-87809525D01*
X150761905Y-87771430D01*
X150838095Y-87771430D01*
X151028571Y-88038096D02*
X151028571Y-88342858D01*
X150761905Y-88152382D02*
X151447619Y-88152382D01*
X151523810Y-88190477D01*
X151561905Y-88266668D01*
X151561905Y-88342858D01*
X151561905Y-88609525D02*
X150761905Y-88609525D01*
X151561905Y-88952382D02*
X151142857Y-88952382D01*
X151066667Y-88914287D01*
X151028571Y-88838097D01*
X151028571Y-88723811D01*
X151066667Y-88647620D01*
X151104762Y-88609525D01*
X151257143Y-89942859D02*
X151257143Y-90552383D01*
X150800000Y-91961907D02*
X150761905Y-91885716D01*
X150761905Y-91771431D01*
X150800000Y-91657145D01*
X150876190Y-91580954D01*
X150952381Y-91542859D01*
X151104762Y-91504764D01*
X151219048Y-91504764D01*
X151371429Y-91542859D01*
X151447619Y-91580954D01*
X151523810Y-91657145D01*
X151561905Y-91771431D01*
X151561905Y-91847621D01*
X151523810Y-91961907D01*
X151485714Y-92000002D01*
X151219048Y-92000002D01*
X151219048Y-91847621D01*
X150761905Y-92495240D02*
X150761905Y-92571431D01*
X150800000Y-92647621D01*
X150838095Y-92685716D01*
X150914286Y-92723812D01*
X151066667Y-92761907D01*
X151257143Y-92761907D01*
X151409524Y-92723812D01*
X151485714Y-92685716D01*
X151523810Y-92647621D01*
X151561905Y-92571431D01*
X151561905Y-92495240D01*
X151523810Y-92419050D01*
X151485714Y-92380954D01*
X151409524Y-92342859D01*
X151257143Y-92304764D01*
X151066667Y-92304764D01*
X150914286Y-92342859D01*
X150838095Y-92380954D01*
X150800000Y-92419050D01*
X150761905Y-92495240D01*
X150761905Y-92990478D02*
X150761905Y-93447621D01*
X151561905Y-93219050D02*
X150761905Y-93219050D01*
X151561905Y-93714288D02*
X150761905Y-93714288D01*
X150761905Y-93904764D01*
X150800000Y-94019050D01*
X150876190Y-94095241D01*
X150952381Y-94133336D01*
X151104762Y-94171431D01*
X151219048Y-94171431D01*
X151371429Y-94133336D01*
X151447619Y-94095241D01*
X151523810Y-94019050D01*
X151561905Y-93904764D01*
X151561905Y-93714288D01*
X150761905Y-94742860D02*
X151333333Y-94742860D01*
X151447619Y-94704764D01*
X151523810Y-94628574D01*
X151561905Y-94514288D01*
X151561905Y-94438098D01*
M02*
