G04 #@! TF.FileFunction,Soldermask,Top*
%FSLAX46Y46*%
G04 Gerber Fmt 4.6, Leading zero omitted, Abs format (unit mm)*
G04 Created by KiCad (PCBNEW 4.0.5) date 07/20/17 14:13:58*
%MOMM*%
%LPD*%
G01*
G04 APERTURE LIST*
%ADD10C,0.100000*%
%ADD11C,0.010000*%
%ADD12C,2.000000*%
%ADD13R,2.000000X2.000000*%
%ADD14R,2.200000X2.200000*%
%ADD15C,2.200000*%
%ADD16C,1.924000*%
%ADD17R,2.800000X2.000000*%
%ADD18O,2.940000X2.000000*%
%ADD19R,2.398980X2.899360*%
%ADD20C,1.309320*%
%ADD21R,0.900380X2.701240*%
%ADD22R,2.100000X2.100000*%
%ADD23O,2.100000X2.100000*%
%ADD24C,1.900000*%
%ADD25O,2.000000X2.000000*%
%ADD26C,2.279600*%
%ADD27C,2.400000*%
%ADD28C,2.581860*%
%ADD29C,3.900000*%
%ADD30C,0.880000*%
G04 APERTURE END LIST*
D10*
D11*
G36*
X179173591Y-102746125D02*
X179308231Y-102746567D01*
X179431796Y-102747827D01*
X179540578Y-102749809D01*
X179630870Y-102752414D01*
X179698966Y-102755546D01*
X179741158Y-102759107D01*
X179752268Y-102761318D01*
X179795841Y-102793942D01*
X179826409Y-102850119D01*
X179840719Y-102923186D01*
X179841375Y-102943775D01*
X179841375Y-103016000D01*
X179778433Y-103016000D01*
X179730387Y-103010627D01*
X179703405Y-102992065D01*
X179698500Y-102984250D01*
X179692809Y-102975594D01*
X179683801Y-102968673D01*
X179668181Y-102963292D01*
X179642652Y-102959259D01*
X179603917Y-102956379D01*
X179548680Y-102954459D01*
X179473645Y-102953305D01*
X179375515Y-102952724D01*
X179250994Y-102952521D01*
X179158191Y-102952500D01*
X178634875Y-102952500D01*
X178634875Y-102746125D01*
X179173591Y-102746125D01*
X179173591Y-102746125D01*
G37*
X179173591Y-102746125D02*
X179308231Y-102746567D01*
X179431796Y-102747827D01*
X179540578Y-102749809D01*
X179630870Y-102752414D01*
X179698966Y-102755546D01*
X179741158Y-102759107D01*
X179752268Y-102761318D01*
X179795841Y-102793942D01*
X179826409Y-102850119D01*
X179840719Y-102923186D01*
X179841375Y-102943775D01*
X179841375Y-103016000D01*
X179778433Y-103016000D01*
X179730387Y-103010627D01*
X179703405Y-102992065D01*
X179698500Y-102984250D01*
X179692809Y-102975594D01*
X179683801Y-102968673D01*
X179668181Y-102963292D01*
X179642652Y-102959259D01*
X179603917Y-102956379D01*
X179548680Y-102954459D01*
X179473645Y-102953305D01*
X179375515Y-102952724D01*
X179250994Y-102952521D01*
X179158191Y-102952500D01*
X178634875Y-102952500D01*
X178634875Y-102746125D01*
X179173591Y-102746125D01*
G36*
X178634055Y-103224300D02*
X178673141Y-103149212D01*
X178712584Y-103107151D01*
X178746841Y-103081904D01*
X178784831Y-103062881D01*
X178831477Y-103049252D01*
X178891697Y-103040190D01*
X178970413Y-103034867D01*
X179072544Y-103032454D01*
X179158750Y-103032053D01*
X179254097Y-103032982D01*
X179342497Y-103035556D01*
X179417328Y-103039451D01*
X179471967Y-103044347D01*
X179495600Y-103048449D01*
X179568123Y-103081476D01*
X179631328Y-103133628D01*
X179674456Y-103195833D01*
X179676846Y-103201281D01*
X179692332Y-103263072D01*
X179697086Y-103338631D01*
X179691155Y-103413066D01*
X179675999Y-103468438D01*
X179636699Y-103528552D01*
X179580108Y-103582539D01*
X179519053Y-103618172D01*
X179518872Y-103618241D01*
X179487605Y-103623940D01*
X179429176Y-103628688D01*
X179348165Y-103632273D01*
X179249153Y-103634484D01*
X179155991Y-103635100D01*
X179155991Y-103428750D01*
X179265153Y-103428423D01*
X179346992Y-103427212D01*
X179405933Y-103424774D01*
X179446398Y-103420767D01*
X179472811Y-103414847D01*
X179489596Y-103406671D01*
X179494843Y-103402478D01*
X179519690Y-103361640D01*
X179521168Y-103314109D01*
X179499850Y-103272658D01*
X179488592Y-103262963D01*
X179470297Y-103253915D01*
X179442029Y-103247288D01*
X179399298Y-103242745D01*
X179337612Y-103239951D01*
X179252480Y-103238568D01*
X179158750Y-103238250D01*
X179050257Y-103238702D01*
X178969013Y-103240279D01*
X178910527Y-103243320D01*
X178870306Y-103248161D01*
X178843860Y-103255137D01*
X178828907Y-103262963D01*
X178800291Y-103300162D01*
X178795375Y-103347654D01*
X178814926Y-103393773D01*
X178819897Y-103399719D01*
X178831609Y-103409786D01*
X178848904Y-103417235D01*
X178876264Y-103422453D01*
X178918167Y-103425826D01*
X178979092Y-103427741D01*
X179063518Y-103428585D01*
X179155991Y-103428750D01*
X179155991Y-103635100D01*
X179152275Y-103635125D01*
X179042550Y-103634943D01*
X178959561Y-103634084D01*
X178898295Y-103632079D01*
X178853737Y-103628460D01*
X178820876Y-103622757D01*
X178794697Y-103614503D01*
X178770187Y-103603229D01*
X178761240Y-103598570D01*
X178695070Y-103546928D01*
X178648582Y-103476763D01*
X178622461Y-103394992D01*
X178617390Y-103308532D01*
X178634055Y-103224300D01*
X178634055Y-103224300D01*
G37*
X178634055Y-103224300D02*
X178673141Y-103149212D01*
X178712584Y-103107151D01*
X178746841Y-103081904D01*
X178784831Y-103062881D01*
X178831477Y-103049252D01*
X178891697Y-103040190D01*
X178970413Y-103034867D01*
X179072544Y-103032454D01*
X179158750Y-103032053D01*
X179254097Y-103032982D01*
X179342497Y-103035556D01*
X179417328Y-103039451D01*
X179471967Y-103044347D01*
X179495600Y-103048449D01*
X179568123Y-103081476D01*
X179631328Y-103133628D01*
X179674456Y-103195833D01*
X179676846Y-103201281D01*
X179692332Y-103263072D01*
X179697086Y-103338631D01*
X179691155Y-103413066D01*
X179675999Y-103468438D01*
X179636699Y-103528552D01*
X179580108Y-103582539D01*
X179519053Y-103618172D01*
X179518872Y-103618241D01*
X179487605Y-103623940D01*
X179429176Y-103628688D01*
X179348165Y-103632273D01*
X179249153Y-103634484D01*
X179155991Y-103635100D01*
X179155991Y-103428750D01*
X179265153Y-103428423D01*
X179346992Y-103427212D01*
X179405933Y-103424774D01*
X179446398Y-103420767D01*
X179472811Y-103414847D01*
X179489596Y-103406671D01*
X179494843Y-103402478D01*
X179519690Y-103361640D01*
X179521168Y-103314109D01*
X179499850Y-103272658D01*
X179488592Y-103262963D01*
X179470297Y-103253915D01*
X179442029Y-103247288D01*
X179399298Y-103242745D01*
X179337612Y-103239951D01*
X179252480Y-103238568D01*
X179158750Y-103238250D01*
X179050257Y-103238702D01*
X178969013Y-103240279D01*
X178910527Y-103243320D01*
X178870306Y-103248161D01*
X178843860Y-103255137D01*
X178828907Y-103262963D01*
X178800291Y-103300162D01*
X178795375Y-103347654D01*
X178814926Y-103393773D01*
X178819897Y-103399719D01*
X178831609Y-103409786D01*
X178848904Y-103417235D01*
X178876264Y-103422453D01*
X178918167Y-103425826D01*
X178979092Y-103427741D01*
X179063518Y-103428585D01*
X179155991Y-103428750D01*
X179155991Y-103635100D01*
X179152275Y-103635125D01*
X179042550Y-103634943D01*
X178959561Y-103634084D01*
X178898295Y-103632079D01*
X178853737Y-103628460D01*
X178820876Y-103622757D01*
X178794697Y-103614503D01*
X178770187Y-103603229D01*
X178761240Y-103598570D01*
X178695070Y-103546928D01*
X178648582Y-103476763D01*
X178622461Y-103394992D01*
X178617390Y-103308532D01*
X178634055Y-103224300D01*
G36*
X178632763Y-102247207D02*
X178657503Y-102184778D01*
X178701576Y-102132483D01*
X178736175Y-102104169D01*
X178759114Y-102089999D01*
X178787644Y-102080146D01*
X178828205Y-102073595D01*
X178887239Y-102069331D01*
X178971186Y-102066339D01*
X178977288Y-102066175D01*
X179174625Y-102060911D01*
X179174625Y-102444500D01*
X179313967Y-102444500D01*
X179402791Y-102441218D01*
X179464281Y-102430206D01*
X179502283Y-102409721D01*
X179520644Y-102378015D01*
X179523875Y-102349250D01*
X179511792Y-102302595D01*
X179474649Y-102271897D01*
X179411096Y-102256369D01*
X179361592Y-102254000D01*
X179269875Y-102254000D01*
X179269875Y-102060242D01*
X179403660Y-102065840D01*
X179488335Y-102072849D01*
X179550372Y-102088238D01*
X179598573Y-102115972D01*
X179641744Y-102160017D01*
X179657341Y-102180083D01*
X179682358Y-102234383D01*
X179695245Y-102306707D01*
X179695630Y-102385587D01*
X179683143Y-102459554D01*
X179667695Y-102500063D01*
X179632459Y-102550915D01*
X179586639Y-102596003D01*
X179576774Y-102603250D01*
X179556550Y-102616324D01*
X179536432Y-102626229D01*
X179511777Y-102633482D01*
X179477944Y-102638596D01*
X179430293Y-102642086D01*
X179364182Y-102644467D01*
X179274969Y-102646254D01*
X179175840Y-102647713D01*
X179062796Y-102649166D01*
X178976705Y-102649702D01*
X178938960Y-102649253D01*
X178938960Y-102444500D01*
X179031750Y-102444500D01*
X179031750Y-102249591D01*
X178935906Y-102258282D01*
X178864950Y-102268672D01*
X178820755Y-102286197D01*
X178798618Y-102313757D01*
X178793625Y-102345976D01*
X178803676Y-102395200D01*
X178835640Y-102426631D01*
X178892228Y-102442107D01*
X178938960Y-102444500D01*
X178938960Y-102649253D01*
X178912771Y-102648941D01*
X178866201Y-102646506D01*
X178832202Y-102642019D01*
X178805979Y-102635101D01*
X178782739Y-102625375D01*
X178762712Y-102615126D01*
X178691427Y-102562463D01*
X178645313Y-102492404D01*
X178623531Y-102403246D01*
X178622238Y-102329914D01*
X178632763Y-102247207D01*
X178632763Y-102247207D01*
G37*
X178632763Y-102247207D02*
X178657503Y-102184778D01*
X178701576Y-102132483D01*
X178736175Y-102104169D01*
X178759114Y-102089999D01*
X178787644Y-102080146D01*
X178828205Y-102073595D01*
X178887239Y-102069331D01*
X178971186Y-102066339D01*
X178977288Y-102066175D01*
X179174625Y-102060911D01*
X179174625Y-102444500D01*
X179313967Y-102444500D01*
X179402791Y-102441218D01*
X179464281Y-102430206D01*
X179502283Y-102409721D01*
X179520644Y-102378015D01*
X179523875Y-102349250D01*
X179511792Y-102302595D01*
X179474649Y-102271897D01*
X179411096Y-102256369D01*
X179361592Y-102254000D01*
X179269875Y-102254000D01*
X179269875Y-102060242D01*
X179403660Y-102065840D01*
X179488335Y-102072849D01*
X179550372Y-102088238D01*
X179598573Y-102115972D01*
X179641744Y-102160017D01*
X179657341Y-102180083D01*
X179682358Y-102234383D01*
X179695245Y-102306707D01*
X179695630Y-102385587D01*
X179683143Y-102459554D01*
X179667695Y-102500063D01*
X179632459Y-102550915D01*
X179586639Y-102596003D01*
X179576774Y-102603250D01*
X179556550Y-102616324D01*
X179536432Y-102626229D01*
X179511777Y-102633482D01*
X179477944Y-102638596D01*
X179430293Y-102642086D01*
X179364182Y-102644467D01*
X179274969Y-102646254D01*
X179175840Y-102647713D01*
X179062796Y-102649166D01*
X178976705Y-102649702D01*
X178938960Y-102649253D01*
X178938960Y-102444500D01*
X179031750Y-102444500D01*
X179031750Y-102249591D01*
X178935906Y-102258282D01*
X178864950Y-102268672D01*
X178820755Y-102286197D01*
X178798618Y-102313757D01*
X178793625Y-102345976D01*
X178803676Y-102395200D01*
X178835640Y-102426631D01*
X178892228Y-102442107D01*
X178938960Y-102444500D01*
X178938960Y-102649253D01*
X178912771Y-102648941D01*
X178866201Y-102646506D01*
X178832202Y-102642019D01*
X178805979Y-102635101D01*
X178782739Y-102625375D01*
X178762712Y-102615126D01*
X178691427Y-102562463D01*
X178645313Y-102492404D01*
X178623531Y-102403246D01*
X178622238Y-102329914D01*
X178632763Y-102247207D01*
G36*
X178637750Y-101565402D02*
X178673550Y-101491530D01*
X178731142Y-101440063D01*
X178812030Y-101409518D01*
X178889382Y-101399418D01*
X179000000Y-101393168D01*
X179000000Y-101603125D01*
X178915862Y-101603125D01*
X178851871Y-101607930D01*
X178813585Y-101624474D01*
X178796128Y-101655949D01*
X178793625Y-101683215D01*
X178795780Y-101713767D01*
X178804781Y-101736960D01*
X178824432Y-101753795D01*
X178858536Y-101765275D01*
X178910897Y-101772402D01*
X178985318Y-101776178D01*
X179085603Y-101777604D01*
X179152498Y-101777750D01*
X179270972Y-101777106D01*
X179361423Y-101774538D01*
X179427563Y-101769095D01*
X179473104Y-101759824D01*
X179501758Y-101745773D01*
X179517237Y-101725990D01*
X179523253Y-101699524D01*
X179523875Y-101682500D01*
X179511792Y-101635845D01*
X179474649Y-101605147D01*
X179411096Y-101589619D01*
X179361592Y-101587250D01*
X179269875Y-101587250D01*
X179269875Y-101393492D01*
X179403660Y-101399090D01*
X179488335Y-101406099D01*
X179550372Y-101421488D01*
X179598573Y-101449222D01*
X179641744Y-101493267D01*
X179657341Y-101513333D01*
X179682358Y-101567633D01*
X179695245Y-101639957D01*
X179695630Y-101718837D01*
X179683143Y-101792804D01*
X179667695Y-101833313D01*
X179632459Y-101884165D01*
X179586639Y-101929253D01*
X179576774Y-101936500D01*
X179556550Y-101949574D01*
X179536432Y-101959479D01*
X179511777Y-101966732D01*
X179477944Y-101971846D01*
X179430293Y-101975336D01*
X179364182Y-101977717D01*
X179274969Y-101979504D01*
X179175840Y-101980963D01*
X179062796Y-101982416D01*
X178976705Y-101982952D01*
X178912771Y-101982191D01*
X178866201Y-101979756D01*
X178832202Y-101975269D01*
X178805979Y-101968351D01*
X178782739Y-101958625D01*
X178762712Y-101948376D01*
X178691427Y-101895713D01*
X178645313Y-101825654D01*
X178623531Y-101736496D01*
X178622238Y-101663164D01*
X178637750Y-101565402D01*
X178637750Y-101565402D01*
G37*
X178637750Y-101565402D02*
X178673550Y-101491530D01*
X178731142Y-101440063D01*
X178812030Y-101409518D01*
X178889382Y-101399418D01*
X179000000Y-101393168D01*
X179000000Y-101603125D01*
X178915862Y-101603125D01*
X178851871Y-101607930D01*
X178813585Y-101624474D01*
X178796128Y-101655949D01*
X178793625Y-101683215D01*
X178795780Y-101713767D01*
X178804781Y-101736960D01*
X178824432Y-101753795D01*
X178858536Y-101765275D01*
X178910897Y-101772402D01*
X178985318Y-101776178D01*
X179085603Y-101777604D01*
X179152498Y-101777750D01*
X179270972Y-101777106D01*
X179361423Y-101774538D01*
X179427563Y-101769095D01*
X179473104Y-101759824D01*
X179501758Y-101745773D01*
X179517237Y-101725990D01*
X179523253Y-101699524D01*
X179523875Y-101682500D01*
X179511792Y-101635845D01*
X179474649Y-101605147D01*
X179411096Y-101589619D01*
X179361592Y-101587250D01*
X179269875Y-101587250D01*
X179269875Y-101393492D01*
X179403660Y-101399090D01*
X179488335Y-101406099D01*
X179550372Y-101421488D01*
X179598573Y-101449222D01*
X179641744Y-101493267D01*
X179657341Y-101513333D01*
X179682358Y-101567633D01*
X179695245Y-101639957D01*
X179695630Y-101718837D01*
X179683143Y-101792804D01*
X179667695Y-101833313D01*
X179632459Y-101884165D01*
X179586639Y-101929253D01*
X179576774Y-101936500D01*
X179556550Y-101949574D01*
X179536432Y-101959479D01*
X179511777Y-101966732D01*
X179477944Y-101971846D01*
X179430293Y-101975336D01*
X179364182Y-101977717D01*
X179274969Y-101979504D01*
X179175840Y-101980963D01*
X179062796Y-101982416D01*
X178976705Y-101982952D01*
X178912771Y-101982191D01*
X178866201Y-101979756D01*
X178832202Y-101975269D01*
X178805979Y-101968351D01*
X178782739Y-101958625D01*
X178762712Y-101948376D01*
X178691427Y-101895713D01*
X178645313Y-101825654D01*
X178623531Y-101736496D01*
X178622238Y-101663164D01*
X178637750Y-101565402D01*
G36*
X178637750Y-98152277D02*
X178673550Y-98078405D01*
X178731142Y-98026938D01*
X178812030Y-97996393D01*
X178889382Y-97986293D01*
X179000000Y-97980043D01*
X179000000Y-98190000D01*
X178915862Y-98190000D01*
X178851871Y-98194805D01*
X178813585Y-98211349D01*
X178796128Y-98242824D01*
X178793625Y-98270090D01*
X178795780Y-98300642D01*
X178804781Y-98323835D01*
X178824432Y-98340670D01*
X178858536Y-98352150D01*
X178910897Y-98359277D01*
X178985318Y-98363053D01*
X179085603Y-98364479D01*
X179152498Y-98364625D01*
X179270972Y-98363981D01*
X179361423Y-98361413D01*
X179427563Y-98355970D01*
X179473104Y-98346699D01*
X179501758Y-98332648D01*
X179517237Y-98312865D01*
X179523253Y-98286399D01*
X179523875Y-98269375D01*
X179511792Y-98222720D01*
X179474649Y-98192022D01*
X179411096Y-98176494D01*
X179361592Y-98174125D01*
X179269875Y-98174125D01*
X179269875Y-97980367D01*
X179403660Y-97985965D01*
X179488335Y-97992974D01*
X179550372Y-98008363D01*
X179598573Y-98036097D01*
X179641744Y-98080142D01*
X179657341Y-98100208D01*
X179682358Y-98154508D01*
X179695245Y-98226832D01*
X179695630Y-98305712D01*
X179683143Y-98379679D01*
X179667695Y-98420188D01*
X179632459Y-98471040D01*
X179586639Y-98516128D01*
X179576774Y-98523375D01*
X179556550Y-98536449D01*
X179536432Y-98546354D01*
X179511777Y-98553607D01*
X179477944Y-98558721D01*
X179430293Y-98562211D01*
X179364182Y-98564592D01*
X179274969Y-98566379D01*
X179175840Y-98567838D01*
X179062796Y-98569291D01*
X178976705Y-98569827D01*
X178912771Y-98569066D01*
X178866201Y-98566631D01*
X178832202Y-98562144D01*
X178805979Y-98555226D01*
X178782739Y-98545500D01*
X178762712Y-98535251D01*
X178691427Y-98482588D01*
X178645313Y-98412529D01*
X178623531Y-98323371D01*
X178622238Y-98250039D01*
X178637750Y-98152277D01*
X178637750Y-98152277D01*
G37*
X178637750Y-98152277D02*
X178673550Y-98078405D01*
X178731142Y-98026938D01*
X178812030Y-97996393D01*
X178889382Y-97986293D01*
X179000000Y-97980043D01*
X179000000Y-98190000D01*
X178915862Y-98190000D01*
X178851871Y-98194805D01*
X178813585Y-98211349D01*
X178796128Y-98242824D01*
X178793625Y-98270090D01*
X178795780Y-98300642D01*
X178804781Y-98323835D01*
X178824432Y-98340670D01*
X178858536Y-98352150D01*
X178910897Y-98359277D01*
X178985318Y-98363053D01*
X179085603Y-98364479D01*
X179152498Y-98364625D01*
X179270972Y-98363981D01*
X179361423Y-98361413D01*
X179427563Y-98355970D01*
X179473104Y-98346699D01*
X179501758Y-98332648D01*
X179517237Y-98312865D01*
X179523253Y-98286399D01*
X179523875Y-98269375D01*
X179511792Y-98222720D01*
X179474649Y-98192022D01*
X179411096Y-98176494D01*
X179361592Y-98174125D01*
X179269875Y-98174125D01*
X179269875Y-97980367D01*
X179403660Y-97985965D01*
X179488335Y-97992974D01*
X179550372Y-98008363D01*
X179598573Y-98036097D01*
X179641744Y-98080142D01*
X179657341Y-98100208D01*
X179682358Y-98154508D01*
X179695245Y-98226832D01*
X179695630Y-98305712D01*
X179683143Y-98379679D01*
X179667695Y-98420188D01*
X179632459Y-98471040D01*
X179586639Y-98516128D01*
X179576774Y-98523375D01*
X179556550Y-98536449D01*
X179536432Y-98546354D01*
X179511777Y-98553607D01*
X179477944Y-98558721D01*
X179430293Y-98562211D01*
X179364182Y-98564592D01*
X179274969Y-98566379D01*
X179175840Y-98567838D01*
X179062796Y-98569291D01*
X178976705Y-98569827D01*
X178912771Y-98569066D01*
X178866201Y-98566631D01*
X178832202Y-98562144D01*
X178805979Y-98555226D01*
X178782739Y-98545500D01*
X178762712Y-98535251D01*
X178691427Y-98482588D01*
X178645313Y-98412529D01*
X178623531Y-98323371D01*
X178622238Y-98250039D01*
X178637750Y-98152277D01*
G36*
X178634055Y-97525175D02*
X178673141Y-97450087D01*
X178712584Y-97408026D01*
X178746841Y-97382779D01*
X178784831Y-97363756D01*
X178831477Y-97350127D01*
X178891697Y-97341065D01*
X178970413Y-97335742D01*
X179072544Y-97333329D01*
X179158750Y-97332928D01*
X179254097Y-97333857D01*
X179342497Y-97336431D01*
X179417328Y-97340326D01*
X179471967Y-97345222D01*
X179495600Y-97349324D01*
X179568123Y-97382351D01*
X179631328Y-97434503D01*
X179674456Y-97496708D01*
X179676846Y-97502156D01*
X179692332Y-97563947D01*
X179697086Y-97639506D01*
X179691155Y-97713941D01*
X179675999Y-97769313D01*
X179636699Y-97829427D01*
X179580108Y-97883414D01*
X179519053Y-97919047D01*
X179518872Y-97919116D01*
X179487605Y-97924815D01*
X179429176Y-97929563D01*
X179348165Y-97933148D01*
X179249153Y-97935359D01*
X179155991Y-97935975D01*
X179155991Y-97729625D01*
X179265153Y-97729298D01*
X179346992Y-97728087D01*
X179405933Y-97725649D01*
X179446398Y-97721642D01*
X179472811Y-97715722D01*
X179489596Y-97707546D01*
X179494843Y-97703353D01*
X179519690Y-97662515D01*
X179521168Y-97614984D01*
X179499850Y-97573533D01*
X179488592Y-97563838D01*
X179470297Y-97554790D01*
X179442029Y-97548163D01*
X179399298Y-97543620D01*
X179337612Y-97540826D01*
X179252480Y-97539443D01*
X179158750Y-97539125D01*
X179050257Y-97539577D01*
X178969013Y-97541154D01*
X178910527Y-97544195D01*
X178870306Y-97549036D01*
X178843860Y-97556012D01*
X178828907Y-97563838D01*
X178800291Y-97601037D01*
X178795375Y-97648529D01*
X178814926Y-97694648D01*
X178819897Y-97700594D01*
X178831609Y-97710661D01*
X178848904Y-97718110D01*
X178876264Y-97723328D01*
X178918167Y-97726701D01*
X178979092Y-97728616D01*
X179063518Y-97729460D01*
X179155991Y-97729625D01*
X179155991Y-97935975D01*
X179152275Y-97936000D01*
X179042550Y-97935818D01*
X178959561Y-97934959D01*
X178898295Y-97932954D01*
X178853737Y-97929335D01*
X178820876Y-97923632D01*
X178794697Y-97915378D01*
X178770187Y-97904104D01*
X178761240Y-97899445D01*
X178695070Y-97847803D01*
X178648582Y-97777638D01*
X178622461Y-97695867D01*
X178617390Y-97609407D01*
X178634055Y-97525175D01*
X178634055Y-97525175D01*
G37*
X178634055Y-97525175D02*
X178673141Y-97450087D01*
X178712584Y-97408026D01*
X178746841Y-97382779D01*
X178784831Y-97363756D01*
X178831477Y-97350127D01*
X178891697Y-97341065D01*
X178970413Y-97335742D01*
X179072544Y-97333329D01*
X179158750Y-97332928D01*
X179254097Y-97333857D01*
X179342497Y-97336431D01*
X179417328Y-97340326D01*
X179471967Y-97345222D01*
X179495600Y-97349324D01*
X179568123Y-97382351D01*
X179631328Y-97434503D01*
X179674456Y-97496708D01*
X179676846Y-97502156D01*
X179692332Y-97563947D01*
X179697086Y-97639506D01*
X179691155Y-97713941D01*
X179675999Y-97769313D01*
X179636699Y-97829427D01*
X179580108Y-97883414D01*
X179519053Y-97919047D01*
X179518872Y-97919116D01*
X179487605Y-97924815D01*
X179429176Y-97929563D01*
X179348165Y-97933148D01*
X179249153Y-97935359D01*
X179155991Y-97935975D01*
X179155991Y-97729625D01*
X179265153Y-97729298D01*
X179346992Y-97728087D01*
X179405933Y-97725649D01*
X179446398Y-97721642D01*
X179472811Y-97715722D01*
X179489596Y-97707546D01*
X179494843Y-97703353D01*
X179519690Y-97662515D01*
X179521168Y-97614984D01*
X179499850Y-97573533D01*
X179488592Y-97563838D01*
X179470297Y-97554790D01*
X179442029Y-97548163D01*
X179399298Y-97543620D01*
X179337612Y-97540826D01*
X179252480Y-97539443D01*
X179158750Y-97539125D01*
X179050257Y-97539577D01*
X178969013Y-97541154D01*
X178910527Y-97544195D01*
X178870306Y-97549036D01*
X178843860Y-97556012D01*
X178828907Y-97563838D01*
X178800291Y-97601037D01*
X178795375Y-97648529D01*
X178814926Y-97694648D01*
X178819897Y-97700594D01*
X178831609Y-97710661D01*
X178848904Y-97718110D01*
X178876264Y-97723328D01*
X178918167Y-97726701D01*
X178979092Y-97728616D01*
X179063518Y-97729460D01*
X179155991Y-97729625D01*
X179155991Y-97935975D01*
X179152275Y-97936000D01*
X179042550Y-97935818D01*
X178959561Y-97934959D01*
X178898295Y-97932954D01*
X178853737Y-97929335D01*
X178820876Y-97923632D01*
X178794697Y-97915378D01*
X178770187Y-97904104D01*
X178761240Y-97899445D01*
X178695070Y-97847803D01*
X178648582Y-97777638D01*
X178622461Y-97695867D01*
X178617390Y-97609407D01*
X178634055Y-97525175D01*
G36*
X178634864Y-107581110D02*
X178640706Y-107560912D01*
X178655651Y-107546222D01*
X178683603Y-107535342D01*
X178728466Y-107526572D01*
X178794144Y-107518213D01*
X178884540Y-107508567D01*
X178968250Y-107499751D01*
X179052764Y-107490504D01*
X179125292Y-107482189D01*
X179180358Y-107475464D01*
X179212485Y-107470988D01*
X179218449Y-107469683D01*
X179205026Y-107466059D01*
X179165236Y-107458347D01*
X179104070Y-107447443D01*
X179026518Y-107434241D01*
X178956511Y-107422705D01*
X178848295Y-107405253D01*
X178767376Y-107391834D01*
X178709818Y-107380786D01*
X178671683Y-107370448D01*
X178649035Y-107359156D01*
X178637935Y-107345250D01*
X178634446Y-107327067D01*
X178634632Y-107302945D01*
X178634875Y-107286935D01*
X178634875Y-107210260D01*
X178734093Y-107193258D01*
X178794048Y-107183179D01*
X178872657Y-107170230D01*
X178957212Y-107156497D01*
X179000000Y-107149629D01*
X179069681Y-107137725D01*
X179127497Y-107126400D01*
X179166352Y-107117132D01*
X179178809Y-107112397D01*
X179167883Y-107107441D01*
X179130104Y-107100189D01*
X179070228Y-107091352D01*
X178993010Y-107081637D01*
X178912903Y-107072760D01*
X178634875Y-107043727D01*
X178634875Y-106950739D01*
X178637660Y-106892292D01*
X178646329Y-106862951D01*
X178654718Y-106858416D01*
X178674773Y-106860876D01*
X178722296Y-106867536D01*
X178793363Y-106877822D01*
X178884053Y-106891159D01*
X178990445Y-106906971D01*
X179108616Y-106924684D01*
X179174625Y-106934638D01*
X179674687Y-107010195D01*
X179684027Y-107202665D01*
X179496795Y-107230862D01*
X179370063Y-107249997D01*
X179271643Y-107265058D01*
X179198443Y-107276648D01*
X179147370Y-107285366D01*
X179115331Y-107291816D01*
X179099234Y-107296597D01*
X179095988Y-107300311D01*
X179102499Y-107303560D01*
X179111125Y-107305859D01*
X179139688Y-107311577D01*
X179193440Y-107321262D01*
X179266223Y-107333845D01*
X179351876Y-107348256D01*
X179416718Y-107358945D01*
X179682625Y-107402401D01*
X179682625Y-107494898D01*
X179681338Y-107547550D01*
X179675542Y-107576668D01*
X179662327Y-107590428D01*
X179646906Y-107595345D01*
X179622628Y-107599668D01*
X179572446Y-107607817D01*
X179501048Y-107619080D01*
X179413116Y-107632746D01*
X179313338Y-107648106D01*
X179206396Y-107664448D01*
X179096978Y-107681061D01*
X178989767Y-107697234D01*
X178889449Y-107712257D01*
X178800709Y-107725419D01*
X178728232Y-107736008D01*
X178676703Y-107743315D01*
X178650808Y-107746628D01*
X178648990Y-107746750D01*
X178641763Y-107732280D01*
X178636673Y-107694456D01*
X178634875Y-107644824D01*
X178634221Y-107608514D01*
X178634864Y-107581110D01*
X178634864Y-107581110D01*
G37*
X178634864Y-107581110D02*
X178640706Y-107560912D01*
X178655651Y-107546222D01*
X178683603Y-107535342D01*
X178728466Y-107526572D01*
X178794144Y-107518213D01*
X178884540Y-107508567D01*
X178968250Y-107499751D01*
X179052764Y-107490504D01*
X179125292Y-107482189D01*
X179180358Y-107475464D01*
X179212485Y-107470988D01*
X179218449Y-107469683D01*
X179205026Y-107466059D01*
X179165236Y-107458347D01*
X179104070Y-107447443D01*
X179026518Y-107434241D01*
X178956511Y-107422705D01*
X178848295Y-107405253D01*
X178767376Y-107391834D01*
X178709818Y-107380786D01*
X178671683Y-107370448D01*
X178649035Y-107359156D01*
X178637935Y-107345250D01*
X178634446Y-107327067D01*
X178634632Y-107302945D01*
X178634875Y-107286935D01*
X178634875Y-107210260D01*
X178734093Y-107193258D01*
X178794048Y-107183179D01*
X178872657Y-107170230D01*
X178957212Y-107156497D01*
X179000000Y-107149629D01*
X179069681Y-107137725D01*
X179127497Y-107126400D01*
X179166352Y-107117132D01*
X179178809Y-107112397D01*
X179167883Y-107107441D01*
X179130104Y-107100189D01*
X179070228Y-107091352D01*
X178993010Y-107081637D01*
X178912903Y-107072760D01*
X178634875Y-107043727D01*
X178634875Y-106950739D01*
X178637660Y-106892292D01*
X178646329Y-106862951D01*
X178654718Y-106858416D01*
X178674773Y-106860876D01*
X178722296Y-106867536D01*
X178793363Y-106877822D01*
X178884053Y-106891159D01*
X178990445Y-106906971D01*
X179108616Y-106924684D01*
X179174625Y-106934638D01*
X179674687Y-107010195D01*
X179684027Y-107202665D01*
X179496795Y-107230862D01*
X179370063Y-107249997D01*
X179271643Y-107265058D01*
X179198443Y-107276648D01*
X179147370Y-107285366D01*
X179115331Y-107291816D01*
X179099234Y-107296597D01*
X179095988Y-107300311D01*
X179102499Y-107303560D01*
X179111125Y-107305859D01*
X179139688Y-107311577D01*
X179193440Y-107321262D01*
X179266223Y-107333845D01*
X179351876Y-107348256D01*
X179416718Y-107358945D01*
X179682625Y-107402401D01*
X179682625Y-107494898D01*
X179681338Y-107547550D01*
X179675542Y-107576668D01*
X179662327Y-107590428D01*
X179646906Y-107595345D01*
X179622628Y-107599668D01*
X179572446Y-107607817D01*
X179501048Y-107619080D01*
X179413116Y-107632746D01*
X179313338Y-107648106D01*
X179206396Y-107664448D01*
X179096978Y-107681061D01*
X178989767Y-107697234D01*
X178889449Y-107712257D01*
X178800709Y-107725419D01*
X178728232Y-107736008D01*
X178676703Y-107743315D01*
X178650808Y-107746628D01*
X178648990Y-107746750D01*
X178641763Y-107732280D01*
X178636673Y-107694456D01*
X178634875Y-107644824D01*
X178634221Y-107608514D01*
X178634864Y-107581110D01*
G36*
X178634864Y-106676235D02*
X178640706Y-106656037D01*
X178655651Y-106641347D01*
X178683603Y-106630467D01*
X178728466Y-106621697D01*
X178794144Y-106613338D01*
X178884540Y-106603692D01*
X178968250Y-106594876D01*
X179052764Y-106585629D01*
X179125292Y-106577314D01*
X179180358Y-106570589D01*
X179212485Y-106566113D01*
X179218449Y-106564808D01*
X179205026Y-106561184D01*
X179165236Y-106553472D01*
X179104070Y-106542568D01*
X179026518Y-106529366D01*
X178956511Y-106517830D01*
X178848295Y-106500378D01*
X178767376Y-106486959D01*
X178709818Y-106475911D01*
X178671683Y-106465573D01*
X178649035Y-106454281D01*
X178637935Y-106440375D01*
X178634446Y-106422192D01*
X178634632Y-106398070D01*
X178634875Y-106382060D01*
X178634875Y-106305385D01*
X178734093Y-106288383D01*
X178794048Y-106278304D01*
X178872657Y-106265355D01*
X178957212Y-106251622D01*
X179000000Y-106244754D01*
X179069681Y-106232850D01*
X179127497Y-106221525D01*
X179166352Y-106212257D01*
X179178809Y-106207522D01*
X179167883Y-106202566D01*
X179130104Y-106195314D01*
X179070228Y-106186477D01*
X178993010Y-106176762D01*
X178912903Y-106167885D01*
X178634875Y-106138852D01*
X178634875Y-106045864D01*
X178637660Y-105987417D01*
X178646329Y-105958076D01*
X178654718Y-105953541D01*
X178674773Y-105956001D01*
X178722296Y-105962661D01*
X178793363Y-105972947D01*
X178884053Y-105986284D01*
X178990445Y-106002096D01*
X179108616Y-106019809D01*
X179174625Y-106029763D01*
X179674687Y-106105320D01*
X179684027Y-106297790D01*
X179496795Y-106325987D01*
X179370063Y-106345122D01*
X179271643Y-106360183D01*
X179198443Y-106371773D01*
X179147370Y-106380491D01*
X179115331Y-106386941D01*
X179099234Y-106391722D01*
X179095988Y-106395436D01*
X179102499Y-106398685D01*
X179111125Y-106400984D01*
X179139688Y-106406702D01*
X179193440Y-106416387D01*
X179266223Y-106428970D01*
X179351876Y-106443381D01*
X179416718Y-106454070D01*
X179682625Y-106497526D01*
X179682625Y-106590023D01*
X179681338Y-106642675D01*
X179675542Y-106671793D01*
X179662327Y-106685553D01*
X179646906Y-106690470D01*
X179622628Y-106694793D01*
X179572446Y-106702942D01*
X179501048Y-106714205D01*
X179413116Y-106727871D01*
X179313338Y-106743231D01*
X179206396Y-106759573D01*
X179096978Y-106776186D01*
X178989767Y-106792359D01*
X178889449Y-106807382D01*
X178800709Y-106820544D01*
X178728232Y-106831133D01*
X178676703Y-106838440D01*
X178650808Y-106841753D01*
X178648990Y-106841875D01*
X178641763Y-106827405D01*
X178636673Y-106789581D01*
X178634875Y-106739949D01*
X178634221Y-106703639D01*
X178634864Y-106676235D01*
X178634864Y-106676235D01*
G37*
X178634864Y-106676235D02*
X178640706Y-106656037D01*
X178655651Y-106641347D01*
X178683603Y-106630467D01*
X178728466Y-106621697D01*
X178794144Y-106613338D01*
X178884540Y-106603692D01*
X178968250Y-106594876D01*
X179052764Y-106585629D01*
X179125292Y-106577314D01*
X179180358Y-106570589D01*
X179212485Y-106566113D01*
X179218449Y-106564808D01*
X179205026Y-106561184D01*
X179165236Y-106553472D01*
X179104070Y-106542568D01*
X179026518Y-106529366D01*
X178956511Y-106517830D01*
X178848295Y-106500378D01*
X178767376Y-106486959D01*
X178709818Y-106475911D01*
X178671683Y-106465573D01*
X178649035Y-106454281D01*
X178637935Y-106440375D01*
X178634446Y-106422192D01*
X178634632Y-106398070D01*
X178634875Y-106382060D01*
X178634875Y-106305385D01*
X178734093Y-106288383D01*
X178794048Y-106278304D01*
X178872657Y-106265355D01*
X178957212Y-106251622D01*
X179000000Y-106244754D01*
X179069681Y-106232850D01*
X179127497Y-106221525D01*
X179166352Y-106212257D01*
X179178809Y-106207522D01*
X179167883Y-106202566D01*
X179130104Y-106195314D01*
X179070228Y-106186477D01*
X178993010Y-106176762D01*
X178912903Y-106167885D01*
X178634875Y-106138852D01*
X178634875Y-106045864D01*
X178637660Y-105987417D01*
X178646329Y-105958076D01*
X178654718Y-105953541D01*
X178674773Y-105956001D01*
X178722296Y-105962661D01*
X178793363Y-105972947D01*
X178884053Y-105986284D01*
X178990445Y-106002096D01*
X179108616Y-106019809D01*
X179174625Y-106029763D01*
X179674687Y-106105320D01*
X179684027Y-106297790D01*
X179496795Y-106325987D01*
X179370063Y-106345122D01*
X179271643Y-106360183D01*
X179198443Y-106371773D01*
X179147370Y-106380491D01*
X179115331Y-106386941D01*
X179099234Y-106391722D01*
X179095988Y-106395436D01*
X179102499Y-106398685D01*
X179111125Y-106400984D01*
X179139688Y-106406702D01*
X179193440Y-106416387D01*
X179266223Y-106428970D01*
X179351876Y-106443381D01*
X179416718Y-106454070D01*
X179682625Y-106497526D01*
X179682625Y-106590023D01*
X179681338Y-106642675D01*
X179675542Y-106671793D01*
X179662327Y-106685553D01*
X179646906Y-106690470D01*
X179622628Y-106694793D01*
X179572446Y-106702942D01*
X179501048Y-106714205D01*
X179413116Y-106727871D01*
X179313338Y-106743231D01*
X179206396Y-106759573D01*
X179096978Y-106776186D01*
X178989767Y-106792359D01*
X178889449Y-106807382D01*
X178800709Y-106820544D01*
X178728232Y-106831133D01*
X178676703Y-106838440D01*
X178650808Y-106841753D01*
X178648990Y-106841875D01*
X178641763Y-106827405D01*
X178636673Y-106789581D01*
X178634875Y-106739949D01*
X178634221Y-106703639D01*
X178634864Y-106676235D01*
G36*
X178634864Y-105771360D02*
X178640706Y-105751162D01*
X178655651Y-105736472D01*
X178683603Y-105725592D01*
X178728466Y-105716822D01*
X178794144Y-105708463D01*
X178884540Y-105698817D01*
X178968250Y-105690001D01*
X179052764Y-105680754D01*
X179125292Y-105672439D01*
X179180358Y-105665714D01*
X179212485Y-105661238D01*
X179218449Y-105659933D01*
X179205026Y-105656309D01*
X179165236Y-105648597D01*
X179104070Y-105637693D01*
X179026518Y-105624491D01*
X178956511Y-105612955D01*
X178848295Y-105595503D01*
X178767376Y-105582084D01*
X178709818Y-105571036D01*
X178671683Y-105560698D01*
X178649035Y-105549406D01*
X178637935Y-105535500D01*
X178634446Y-105517317D01*
X178634632Y-105493195D01*
X178634875Y-105477185D01*
X178634875Y-105400510D01*
X178734093Y-105383508D01*
X178794048Y-105373429D01*
X178872657Y-105360480D01*
X178957212Y-105346747D01*
X179000000Y-105339879D01*
X179069681Y-105327975D01*
X179127497Y-105316650D01*
X179166352Y-105307382D01*
X179178809Y-105302647D01*
X179167883Y-105297691D01*
X179130104Y-105290439D01*
X179070228Y-105281602D01*
X178993010Y-105271887D01*
X178912903Y-105263010D01*
X178634875Y-105233977D01*
X178634875Y-105140989D01*
X178637660Y-105082542D01*
X178646329Y-105053201D01*
X178654718Y-105048666D01*
X178674773Y-105051126D01*
X178722296Y-105057786D01*
X178793363Y-105068072D01*
X178884053Y-105081409D01*
X178990445Y-105097221D01*
X179108616Y-105114934D01*
X179174625Y-105124888D01*
X179674687Y-105200445D01*
X179684027Y-105392915D01*
X179496795Y-105421112D01*
X179370063Y-105440247D01*
X179271643Y-105455308D01*
X179198443Y-105466898D01*
X179147370Y-105475616D01*
X179115331Y-105482066D01*
X179099234Y-105486847D01*
X179095988Y-105490561D01*
X179102499Y-105493810D01*
X179111125Y-105496109D01*
X179139688Y-105501827D01*
X179193440Y-105511512D01*
X179266223Y-105524095D01*
X179351876Y-105538506D01*
X179416718Y-105549195D01*
X179682625Y-105592651D01*
X179682625Y-105685148D01*
X179681338Y-105737800D01*
X179675542Y-105766918D01*
X179662327Y-105780678D01*
X179646906Y-105785595D01*
X179622628Y-105789918D01*
X179572446Y-105798067D01*
X179501048Y-105809330D01*
X179413116Y-105822996D01*
X179313338Y-105838356D01*
X179206396Y-105854698D01*
X179096978Y-105871311D01*
X178989767Y-105887484D01*
X178889449Y-105902507D01*
X178800709Y-105915669D01*
X178728232Y-105926258D01*
X178676703Y-105933565D01*
X178650808Y-105936878D01*
X178648990Y-105937000D01*
X178641763Y-105922530D01*
X178636673Y-105884706D01*
X178634875Y-105835074D01*
X178634221Y-105798764D01*
X178634864Y-105771360D01*
X178634864Y-105771360D01*
G37*
X178634864Y-105771360D02*
X178640706Y-105751162D01*
X178655651Y-105736472D01*
X178683603Y-105725592D01*
X178728466Y-105716822D01*
X178794144Y-105708463D01*
X178884540Y-105698817D01*
X178968250Y-105690001D01*
X179052764Y-105680754D01*
X179125292Y-105672439D01*
X179180358Y-105665714D01*
X179212485Y-105661238D01*
X179218449Y-105659933D01*
X179205026Y-105656309D01*
X179165236Y-105648597D01*
X179104070Y-105637693D01*
X179026518Y-105624491D01*
X178956511Y-105612955D01*
X178848295Y-105595503D01*
X178767376Y-105582084D01*
X178709818Y-105571036D01*
X178671683Y-105560698D01*
X178649035Y-105549406D01*
X178637935Y-105535500D01*
X178634446Y-105517317D01*
X178634632Y-105493195D01*
X178634875Y-105477185D01*
X178634875Y-105400510D01*
X178734093Y-105383508D01*
X178794048Y-105373429D01*
X178872657Y-105360480D01*
X178957212Y-105346747D01*
X179000000Y-105339879D01*
X179069681Y-105327975D01*
X179127497Y-105316650D01*
X179166352Y-105307382D01*
X179178809Y-105302647D01*
X179167883Y-105297691D01*
X179130104Y-105290439D01*
X179070228Y-105281602D01*
X178993010Y-105271887D01*
X178912903Y-105263010D01*
X178634875Y-105233977D01*
X178634875Y-105140989D01*
X178637660Y-105082542D01*
X178646329Y-105053201D01*
X178654718Y-105048666D01*
X178674773Y-105051126D01*
X178722296Y-105057786D01*
X178793363Y-105068072D01*
X178884053Y-105081409D01*
X178990445Y-105097221D01*
X179108616Y-105114934D01*
X179174625Y-105124888D01*
X179674687Y-105200445D01*
X179684027Y-105392915D01*
X179496795Y-105421112D01*
X179370063Y-105440247D01*
X179271643Y-105455308D01*
X179198443Y-105466898D01*
X179147370Y-105475616D01*
X179115331Y-105482066D01*
X179099234Y-105486847D01*
X179095988Y-105490561D01*
X179102499Y-105493810D01*
X179111125Y-105496109D01*
X179139688Y-105501827D01*
X179193440Y-105511512D01*
X179266223Y-105524095D01*
X179351876Y-105538506D01*
X179416718Y-105549195D01*
X179682625Y-105592651D01*
X179682625Y-105685148D01*
X179681338Y-105737800D01*
X179675542Y-105766918D01*
X179662327Y-105780678D01*
X179646906Y-105785595D01*
X179622628Y-105789918D01*
X179572446Y-105798067D01*
X179501048Y-105809330D01*
X179413116Y-105822996D01*
X179313338Y-105838356D01*
X179206396Y-105854698D01*
X179096978Y-105871311D01*
X178989767Y-105887484D01*
X178889449Y-105902507D01*
X178800709Y-105915669D01*
X178728232Y-105926258D01*
X178676703Y-105933565D01*
X178650808Y-105936878D01*
X178648990Y-105937000D01*
X178641763Y-105922530D01*
X178636673Y-105884706D01*
X178634875Y-105835074D01*
X178634221Y-105798764D01*
X178634864Y-105771360D01*
G36*
X179682625Y-104841625D02*
X179682625Y-105048000D01*
X179476250Y-105048000D01*
X179476250Y-104841625D01*
X179682625Y-104841625D01*
X179682625Y-104841625D01*
G37*
X179682625Y-104841625D02*
X179682625Y-105048000D01*
X179476250Y-105048000D01*
X179476250Y-104841625D01*
X179682625Y-104841625D01*
G36*
X178430980Y-104517318D02*
X178434639Y-104413207D01*
X178441229Y-104335503D01*
X178452685Y-104278875D01*
X178470938Y-104237996D01*
X178497921Y-104207537D01*
X178535568Y-104182169D01*
X178556628Y-104170931D01*
X178601120Y-104157536D01*
X178669182Y-104148003D01*
X178752874Y-104142334D01*
X178844250Y-104140528D01*
X178935369Y-104142584D01*
X179018288Y-104148504D01*
X179085064Y-104158287D01*
X179125871Y-104170931D01*
X179181091Y-104207053D01*
X179218204Y-104253192D01*
X179240872Y-104316200D01*
X179252759Y-104402930D01*
X179253217Y-104409148D01*
X179261937Y-104532063D01*
X179472281Y-104536493D01*
X179682625Y-104540922D01*
X179682625Y-104746375D01*
X178603125Y-104746375D01*
X178603125Y-104540000D01*
X179095250Y-104540000D01*
X179095250Y-104479535D01*
X179089412Y-104431050D01*
X179075117Y-104391880D01*
X179072717Y-104388253D01*
X179060407Y-104375387D01*
X179041897Y-104366669D01*
X179011466Y-104361311D01*
X178963393Y-104358524D01*
X178891957Y-104357519D01*
X178849187Y-104357438D01*
X178755734Y-104358497D01*
X178689402Y-104363197D01*
X178645590Y-104373819D01*
X178619698Y-104392648D01*
X178607124Y-104421965D01*
X178603269Y-104464053D01*
X178603124Y-104479535D01*
X178603125Y-104540000D01*
X178603125Y-104746375D01*
X178425522Y-104746375D01*
X178430980Y-104517318D01*
X178430980Y-104517318D01*
G37*
X178430980Y-104517318D02*
X178434639Y-104413207D01*
X178441229Y-104335503D01*
X178452685Y-104278875D01*
X178470938Y-104237996D01*
X178497921Y-104207537D01*
X178535568Y-104182169D01*
X178556628Y-104170931D01*
X178601120Y-104157536D01*
X178669182Y-104148003D01*
X178752874Y-104142334D01*
X178844250Y-104140528D01*
X178935369Y-104142584D01*
X179018288Y-104148504D01*
X179085064Y-104158287D01*
X179125871Y-104170931D01*
X179181091Y-104207053D01*
X179218204Y-104253192D01*
X179240872Y-104316200D01*
X179252759Y-104402930D01*
X179253217Y-104409148D01*
X179261937Y-104532063D01*
X179472281Y-104536493D01*
X179682625Y-104540922D01*
X179682625Y-104746375D01*
X178603125Y-104746375D01*
X178603125Y-104540000D01*
X179095250Y-104540000D01*
X179095250Y-104479535D01*
X179089412Y-104431050D01*
X179075117Y-104391880D01*
X179072717Y-104388253D01*
X179060407Y-104375387D01*
X179041897Y-104366669D01*
X179011466Y-104361311D01*
X178963393Y-104358524D01*
X178891957Y-104357519D01*
X178849187Y-104357438D01*
X178755734Y-104358497D01*
X178689402Y-104363197D01*
X178645590Y-104373819D01*
X178619698Y-104392648D01*
X178607124Y-104421965D01*
X178603269Y-104464053D01*
X178603124Y-104479535D01*
X178603125Y-104540000D01*
X178603125Y-104746375D01*
X178425522Y-104746375D01*
X178430980Y-104517318D01*
G36*
X178638001Y-103713516D02*
X178651739Y-103704336D01*
X178682622Y-103699941D01*
X178737186Y-103698657D01*
X178753937Y-103698625D01*
X178873000Y-103698625D01*
X178873000Y-103753054D01*
X178873849Y-103784075D01*
X178878743Y-103808244D01*
X178891206Y-103826416D01*
X178914757Y-103839445D01*
X178952919Y-103848187D01*
X179009214Y-103853496D01*
X179087162Y-103856227D01*
X179190287Y-103857235D01*
X179302758Y-103857375D01*
X179682625Y-103857375D01*
X179682625Y-104063750D01*
X178634875Y-104063750D01*
X178634875Y-103960563D01*
X178635530Y-103905114D01*
X178639402Y-103874232D01*
X178649352Y-103860736D01*
X178668240Y-103857446D01*
X178675973Y-103857375D01*
X178717072Y-103857375D01*
X178675973Y-103808532D01*
X178649400Y-103769666D01*
X178635477Y-103735080D01*
X178634874Y-103729157D01*
X178638001Y-103713516D01*
X178638001Y-103713516D01*
G37*
X178638001Y-103713516D02*
X178651739Y-103704336D01*
X178682622Y-103699941D01*
X178737186Y-103698657D01*
X178753937Y-103698625D01*
X178873000Y-103698625D01*
X178873000Y-103753054D01*
X178873849Y-103784075D01*
X178878743Y-103808244D01*
X178891206Y-103826416D01*
X178914757Y-103839445D01*
X178952919Y-103848187D01*
X179009214Y-103853496D01*
X179087162Y-103856227D01*
X179190287Y-103857235D01*
X179302758Y-103857375D01*
X179682625Y-103857375D01*
X179682625Y-104063750D01*
X178634875Y-104063750D01*
X178634875Y-103960563D01*
X178635530Y-103905114D01*
X178639402Y-103874232D01*
X178649352Y-103860736D01*
X178668240Y-103857446D01*
X178675973Y-103857375D01*
X178717072Y-103857375D01*
X178675973Y-103808532D01*
X178649400Y-103769666D01*
X178635477Y-103735080D01*
X178634874Y-103729157D01*
X178638001Y-103713516D01*
G36*
X178634875Y-101095125D02*
X178634875Y-100968125D01*
X178793625Y-100968125D01*
X178793625Y-101095125D01*
X179142316Y-101095125D01*
X179256432Y-101094976D01*
X179342887Y-101094300D01*
X179405771Y-101092751D01*
X179449173Y-101089987D01*
X179477183Y-101085664D01*
X179493888Y-101079438D01*
X179503379Y-101070965D01*
X179507441Y-101064419D01*
X179521283Y-101023383D01*
X179523875Y-101000919D01*
X179527763Y-100981296D01*
X179544680Y-100971506D01*
X179582502Y-100968297D01*
X179603250Y-100968125D01*
X179682625Y-100968125D01*
X179682565Y-101067344D01*
X179677376Y-101143959D01*
X179660474Y-101200586D01*
X179650808Y-101218552D01*
X179618933Y-101257477D01*
X179582743Y-101284158D01*
X179578396Y-101286021D01*
X179551273Y-101290436D01*
X179497455Y-101294361D01*
X179421996Y-101297605D01*
X179329950Y-101299981D01*
X179226370Y-101301297D01*
X179165654Y-101301500D01*
X178793625Y-101301500D01*
X178793625Y-101341188D01*
X178791051Y-101364742D01*
X178777918Y-101376493D01*
X178746105Y-101380500D01*
X178714250Y-101380875D01*
X178667141Y-101379589D01*
X178643640Y-101373022D01*
X178635626Y-101357116D01*
X178634875Y-101341188D01*
X178633065Y-101319854D01*
X178622855Y-101307971D01*
X178597071Y-101302780D01*
X178548540Y-101301523D01*
X178531687Y-101301500D01*
X178428500Y-101301500D01*
X178428500Y-101095125D01*
X178634875Y-101095125D01*
X178634875Y-101095125D01*
G37*
X178634875Y-101095125D02*
X178634875Y-100968125D01*
X178793625Y-100968125D01*
X178793625Y-101095125D01*
X179142316Y-101095125D01*
X179256432Y-101094976D01*
X179342887Y-101094300D01*
X179405771Y-101092751D01*
X179449173Y-101089987D01*
X179477183Y-101085664D01*
X179493888Y-101079438D01*
X179503379Y-101070965D01*
X179507441Y-101064419D01*
X179521283Y-101023383D01*
X179523875Y-101000919D01*
X179527763Y-100981296D01*
X179544680Y-100971506D01*
X179582502Y-100968297D01*
X179603250Y-100968125D01*
X179682625Y-100968125D01*
X179682565Y-101067344D01*
X179677376Y-101143959D01*
X179660474Y-101200586D01*
X179650808Y-101218552D01*
X179618933Y-101257477D01*
X179582743Y-101284158D01*
X179578396Y-101286021D01*
X179551273Y-101290436D01*
X179497455Y-101294361D01*
X179421996Y-101297605D01*
X179329950Y-101299981D01*
X179226370Y-101301297D01*
X179165654Y-101301500D01*
X178793625Y-101301500D01*
X178793625Y-101341188D01*
X178791051Y-101364742D01*
X178777918Y-101376493D01*
X178746105Y-101380500D01*
X178714250Y-101380875D01*
X178667141Y-101379589D01*
X178643640Y-101373022D01*
X178635626Y-101357116D01*
X178634875Y-101341188D01*
X178633065Y-101319854D01*
X178622855Y-101307971D01*
X178597071Y-101302780D01*
X178548540Y-101301523D01*
X178531687Y-101301500D01*
X178428500Y-101301500D01*
X178428500Y-101095125D01*
X178634875Y-101095125D01*
G36*
X179047625Y-100322689D02*
X179182818Y-100297058D01*
X179308239Y-100273377D01*
X179420466Y-100252284D01*
X179516076Y-100234418D01*
X179591648Y-100220417D01*
X179643760Y-100210921D01*
X179668989Y-100206569D01*
X179670718Y-100206358D01*
X179676619Y-100220760D01*
X179680879Y-100258843D01*
X179682619Y-100312549D01*
X179682625Y-100315816D01*
X179682625Y-100425507D01*
X179571500Y-100444250D01*
X179460375Y-100462994D01*
X179460375Y-100571423D01*
X179460208Y-100622486D01*
X179463475Y-100655646D01*
X179475826Y-100675843D01*
X179502913Y-100688018D01*
X179550385Y-100697111D01*
X179615156Y-100706734D01*
X179682625Y-100716916D01*
X179682625Y-100818708D01*
X179680264Y-100879820D01*
X179672814Y-100912319D01*
X179662781Y-100919603D01*
X179643225Y-100916527D01*
X179595987Y-100908145D01*
X179524574Y-100895105D01*
X179432490Y-100878057D01*
X179323240Y-100857652D01*
X179265906Y-100846870D01*
X179265906Y-100649636D01*
X179279259Y-100635960D01*
X179285312Y-100592595D01*
X179285750Y-100569989D01*
X179284897Y-100522733D01*
X179279412Y-100500007D01*
X179264903Y-100494593D01*
X179242093Y-100498231D01*
X179207838Y-100504508D01*
X179151464Y-100514121D01*
X179082221Y-100525510D01*
X179039687Y-100532335D01*
X178970091Y-100543906D01*
X178910837Y-100554700D01*
X178869920Y-100563211D01*
X178857125Y-100566735D01*
X178864890Y-100571836D01*
X178897468Y-100581024D01*
X178948384Y-100592985D01*
X179011164Y-100606408D01*
X179079332Y-100619978D01*
X179146415Y-100632384D01*
X179205937Y-100642310D01*
X179251424Y-100648446D01*
X179265906Y-100649636D01*
X179265906Y-100846870D01*
X179200329Y-100834537D01*
X179067264Y-100809364D01*
X179039687Y-100804130D01*
X178436437Y-100689554D01*
X178436437Y-100438786D01*
X179047625Y-100322689D01*
X179047625Y-100322689D01*
G37*
X179047625Y-100322689D02*
X179182818Y-100297058D01*
X179308239Y-100273377D01*
X179420466Y-100252284D01*
X179516076Y-100234418D01*
X179591648Y-100220417D01*
X179643760Y-100210921D01*
X179668989Y-100206569D01*
X179670718Y-100206358D01*
X179676619Y-100220760D01*
X179680879Y-100258843D01*
X179682619Y-100312549D01*
X179682625Y-100315816D01*
X179682625Y-100425507D01*
X179571500Y-100444250D01*
X179460375Y-100462994D01*
X179460375Y-100571423D01*
X179460208Y-100622486D01*
X179463475Y-100655646D01*
X179475826Y-100675843D01*
X179502913Y-100688018D01*
X179550385Y-100697111D01*
X179615156Y-100706734D01*
X179682625Y-100716916D01*
X179682625Y-100818708D01*
X179680264Y-100879820D01*
X179672814Y-100912319D01*
X179662781Y-100919603D01*
X179643225Y-100916527D01*
X179595987Y-100908145D01*
X179524574Y-100895105D01*
X179432490Y-100878057D01*
X179323240Y-100857652D01*
X179265906Y-100846870D01*
X179265906Y-100649636D01*
X179279259Y-100635960D01*
X179285312Y-100592595D01*
X179285750Y-100569989D01*
X179284897Y-100522733D01*
X179279412Y-100500007D01*
X179264903Y-100494593D01*
X179242093Y-100498231D01*
X179207838Y-100504508D01*
X179151464Y-100514121D01*
X179082221Y-100525510D01*
X179039687Y-100532335D01*
X178970091Y-100543906D01*
X178910837Y-100554700D01*
X178869920Y-100563211D01*
X178857125Y-100566735D01*
X178864890Y-100571836D01*
X178897468Y-100581024D01*
X178948384Y-100592985D01*
X179011164Y-100606408D01*
X179079332Y-100619978D01*
X179146415Y-100632384D01*
X179205937Y-100642310D01*
X179251424Y-100648446D01*
X179265906Y-100649636D01*
X179265906Y-100846870D01*
X179200329Y-100834537D01*
X179067264Y-100809364D01*
X179039687Y-100804130D01*
X178436437Y-100689554D01*
X178436437Y-100438786D01*
X179047625Y-100322689D01*
G36*
X178527718Y-100050005D02*
X178574439Y-100042301D01*
X178645780Y-100030623D01*
X178735018Y-100016068D01*
X178835430Y-99999731D01*
X178940295Y-99982709D01*
X178949610Y-99981199D01*
X179062934Y-99962279D01*
X179146324Y-99947038D01*
X179201340Y-99935122D01*
X179229541Y-99926177D01*
X179232486Y-99919849D01*
X179227422Y-99918084D01*
X179199157Y-99912420D01*
X179144681Y-99902508D01*
X179069114Y-99889243D01*
X178977578Y-99873518D01*
X178875192Y-99856226D01*
X178821317Y-99847236D01*
X178717480Y-99829666D01*
X178623866Y-99813229D01*
X178545118Y-99798790D01*
X178485877Y-99787211D01*
X178450786Y-99779356D01*
X178443462Y-99776937D01*
X178434975Y-99756191D01*
X178431056Y-99712774D01*
X178431645Y-99672025D01*
X178436437Y-99577377D01*
X178793625Y-99645048D01*
X178917748Y-99668564D01*
X179051408Y-99693886D01*
X179184619Y-99719123D01*
X179307396Y-99742382D01*
X179409757Y-99761774D01*
X179416718Y-99763093D01*
X179682625Y-99813466D01*
X179682625Y-99929351D01*
X179681406Y-99991073D01*
X179676730Y-100027950D01*
X179667064Y-100046829D01*
X179654843Y-100053534D01*
X179634087Y-100058102D01*
X179586673Y-100067667D01*
X179516766Y-100081435D01*
X179428527Y-100098611D01*
X179326120Y-100118403D01*
X179213706Y-100140016D01*
X179095450Y-100162656D01*
X178975513Y-100185529D01*
X178858058Y-100207841D01*
X178747247Y-100228798D01*
X178647245Y-100247605D01*
X178562212Y-100263470D01*
X178496312Y-100275598D01*
X178453708Y-100283194D01*
X178438748Y-100285500D01*
X178433663Y-100270977D01*
X178429996Y-100232801D01*
X178428503Y-100179062D01*
X178428500Y-100176005D01*
X178428500Y-100066510D01*
X178527718Y-100050005D01*
X178527718Y-100050005D01*
G37*
X178527718Y-100050005D02*
X178574439Y-100042301D01*
X178645780Y-100030623D01*
X178735018Y-100016068D01*
X178835430Y-99999731D01*
X178940295Y-99982709D01*
X178949610Y-99981199D01*
X179062934Y-99962279D01*
X179146324Y-99947038D01*
X179201340Y-99935122D01*
X179229541Y-99926177D01*
X179232486Y-99919849D01*
X179227422Y-99918084D01*
X179199157Y-99912420D01*
X179144681Y-99902508D01*
X179069114Y-99889243D01*
X178977578Y-99873518D01*
X178875192Y-99856226D01*
X178821317Y-99847236D01*
X178717480Y-99829666D01*
X178623866Y-99813229D01*
X178545118Y-99798790D01*
X178485877Y-99787211D01*
X178450786Y-99779356D01*
X178443462Y-99776937D01*
X178434975Y-99756191D01*
X178431056Y-99712774D01*
X178431645Y-99672025D01*
X178436437Y-99577377D01*
X178793625Y-99645048D01*
X178917748Y-99668564D01*
X179051408Y-99693886D01*
X179184619Y-99719123D01*
X179307396Y-99742382D01*
X179409757Y-99761774D01*
X179416718Y-99763093D01*
X179682625Y-99813466D01*
X179682625Y-99929351D01*
X179681406Y-99991073D01*
X179676730Y-100027950D01*
X179667064Y-100046829D01*
X179654843Y-100053534D01*
X179634087Y-100058102D01*
X179586673Y-100067667D01*
X179516766Y-100081435D01*
X179428527Y-100098611D01*
X179326120Y-100118403D01*
X179213706Y-100140016D01*
X179095450Y-100162656D01*
X178975513Y-100185529D01*
X178858058Y-100207841D01*
X178747247Y-100228798D01*
X178647245Y-100247605D01*
X178562212Y-100263470D01*
X178496312Y-100275598D01*
X178453708Y-100283194D01*
X178438748Y-100285500D01*
X178433663Y-100270977D01*
X178429996Y-100232801D01*
X178428503Y-100179062D01*
X178428500Y-100176005D01*
X178428500Y-100066510D01*
X178527718Y-100050005D01*
G36*
X178428524Y-99321094D02*
X178430478Y-99215358D01*
X178437486Y-99135577D01*
X178451314Y-99076127D01*
X178473725Y-99031385D01*
X178506484Y-98995726D01*
X178538003Y-98972161D01*
X178564027Y-98956713D01*
X178591770Y-98946413D01*
X178628194Y-98940242D01*
X178680257Y-98937183D01*
X178754921Y-98936218D01*
X178784066Y-98936185D01*
X178886959Y-98938465D01*
X178963331Y-98946392D01*
X179018172Y-98961710D01*
X179056469Y-98986161D01*
X179083210Y-99021486D01*
X179094095Y-99044463D01*
X179114223Y-99093056D01*
X179384916Y-98998716D01*
X179472381Y-98968483D01*
X179549594Y-98942265D01*
X179611524Y-98921735D01*
X179653136Y-98908561D01*
X179669117Y-98904375D01*
X179675810Y-98918898D01*
X179680641Y-98957083D01*
X179682618Y-99010852D01*
X179682625Y-99014182D01*
X179682625Y-99123989D01*
X179408781Y-99216588D01*
X179134937Y-99309188D01*
X179408781Y-99313532D01*
X179682625Y-99317875D01*
X179682625Y-99523500D01*
X178603125Y-99523500D01*
X178603125Y-99317125D01*
X178984125Y-99317125D01*
X178984125Y-99254526D01*
X178977904Y-99204459D01*
X178956181Y-99172839D01*
X178948842Y-99167213D01*
X178909547Y-99151586D01*
X178845398Y-99143735D01*
X178793625Y-99142500D01*
X178710887Y-99146092D01*
X178654896Y-99158579D01*
X178621282Y-99182531D01*
X178605678Y-99220514D01*
X178603125Y-99254526D01*
X178603125Y-99317125D01*
X178603125Y-99523500D01*
X178428500Y-99523500D01*
X178428524Y-99321094D01*
X178428524Y-99321094D01*
G37*
X178428524Y-99321094D02*
X178430478Y-99215358D01*
X178437486Y-99135577D01*
X178451314Y-99076127D01*
X178473725Y-99031385D01*
X178506484Y-98995726D01*
X178538003Y-98972161D01*
X178564027Y-98956713D01*
X178591770Y-98946413D01*
X178628194Y-98940242D01*
X178680257Y-98937183D01*
X178754921Y-98936218D01*
X178784066Y-98936185D01*
X178886959Y-98938465D01*
X178963331Y-98946392D01*
X179018172Y-98961710D01*
X179056469Y-98986161D01*
X179083210Y-99021486D01*
X179094095Y-99044463D01*
X179114223Y-99093056D01*
X179384916Y-98998716D01*
X179472381Y-98968483D01*
X179549594Y-98942265D01*
X179611524Y-98921735D01*
X179653136Y-98908561D01*
X179669117Y-98904375D01*
X179675810Y-98918898D01*
X179680641Y-98957083D01*
X179682618Y-99010852D01*
X179682625Y-99014182D01*
X179682625Y-99123989D01*
X179408781Y-99216588D01*
X179134937Y-99309188D01*
X179408781Y-99313532D01*
X179682625Y-99317875D01*
X179682625Y-99523500D01*
X178603125Y-99523500D01*
X178603125Y-99317125D01*
X178984125Y-99317125D01*
X178984125Y-99254526D01*
X178977904Y-99204459D01*
X178956181Y-99172839D01*
X178948842Y-99167213D01*
X178909547Y-99151586D01*
X178845398Y-99143735D01*
X178793625Y-99142500D01*
X178710887Y-99146092D01*
X178654896Y-99158579D01*
X178621282Y-99182531D01*
X178605678Y-99220514D01*
X178603125Y-99254526D01*
X178603125Y-99317125D01*
X178603125Y-99523500D01*
X178428500Y-99523500D01*
X178428524Y-99321094D01*
G36*
X179682625Y-98634500D02*
X179682625Y-98840875D01*
X179476250Y-98840875D01*
X179476250Y-98634500D01*
X179682625Y-98634500D01*
X179682625Y-98634500D01*
G37*
X179682625Y-98634500D02*
X179682625Y-98840875D01*
X179476250Y-98840875D01*
X179476250Y-98634500D01*
X179682625Y-98634500D01*
G36*
X178625088Y-96435318D02*
X178640968Y-96388427D01*
X178644887Y-96382106D01*
X178662504Y-96359877D01*
X178683229Y-96342094D01*
X178710592Y-96328265D01*
X178748122Y-96317900D01*
X178799350Y-96310509D01*
X178867806Y-96305602D01*
X178957020Y-96302688D01*
X179070523Y-96301277D01*
X179211844Y-96300879D01*
X179229677Y-96300875D01*
X179682625Y-96300875D01*
X179682625Y-96507250D01*
X179257175Y-96507250D01*
X179117143Y-96507702D01*
X179006549Y-96509124D01*
X178923089Y-96511613D01*
X178864463Y-96515269D01*
X178828369Y-96520190D01*
X178812675Y-96526300D01*
X178795537Y-96561478D01*
X178795952Y-96604349D01*
X178812514Y-96640065D01*
X178824331Y-96649567D01*
X178850354Y-96654821D01*
X178905477Y-96659181D01*
X178987061Y-96662549D01*
X179092466Y-96664827D01*
X179219054Y-96665917D01*
X179268831Y-96666000D01*
X179682625Y-96666000D01*
X179682625Y-96872375D01*
X179257174Y-96872375D01*
X179123875Y-96872526D01*
X179018935Y-96873364D01*
X178938964Y-96875471D01*
X178880573Y-96879428D01*
X178840369Y-96885813D01*
X178814965Y-96895209D01*
X178800968Y-96908195D01*
X178794989Y-96925353D01*
X178793638Y-96947262D01*
X178793625Y-96951750D01*
X178794503Y-96974576D01*
X178799400Y-96992545D01*
X178811705Y-97006239D01*
X178834808Y-97016237D01*
X178872101Y-97023121D01*
X178926972Y-97027471D01*
X179002812Y-97029868D01*
X179103013Y-97030892D01*
X179230963Y-97031123D01*
X179257174Y-97031125D01*
X179682625Y-97031125D01*
X179682625Y-97237500D01*
X178634875Y-97237500D01*
X178634875Y-97134313D01*
X178635608Y-97078819D01*
X178639587Y-97047907D01*
X178649484Y-97034413D01*
X178667967Y-97031173D01*
X178673341Y-97031125D01*
X178711807Y-97031125D01*
X178665403Y-96984722D01*
X178631601Y-96940881D01*
X178619511Y-96891844D01*
X178618999Y-96874630D01*
X178628228Y-96792866D01*
X178655859Y-96736737D01*
X178689796Y-96711029D01*
X178729480Y-96692948D01*
X178674240Y-96631803D01*
X178639538Y-96588228D01*
X178623234Y-96548905D01*
X178619007Y-96498163D01*
X178618999Y-96494862D01*
X178625088Y-96435318D01*
X178625088Y-96435318D01*
G37*
X178625088Y-96435318D02*
X178640968Y-96388427D01*
X178644887Y-96382106D01*
X178662504Y-96359877D01*
X178683229Y-96342094D01*
X178710592Y-96328265D01*
X178748122Y-96317900D01*
X178799350Y-96310509D01*
X178867806Y-96305602D01*
X178957020Y-96302688D01*
X179070523Y-96301277D01*
X179211844Y-96300879D01*
X179229677Y-96300875D01*
X179682625Y-96300875D01*
X179682625Y-96507250D01*
X179257175Y-96507250D01*
X179117143Y-96507702D01*
X179006549Y-96509124D01*
X178923089Y-96511613D01*
X178864463Y-96515269D01*
X178828369Y-96520190D01*
X178812675Y-96526300D01*
X178795537Y-96561478D01*
X178795952Y-96604349D01*
X178812514Y-96640065D01*
X178824331Y-96649567D01*
X178850354Y-96654821D01*
X178905477Y-96659181D01*
X178987061Y-96662549D01*
X179092466Y-96664827D01*
X179219054Y-96665917D01*
X179268831Y-96666000D01*
X179682625Y-96666000D01*
X179682625Y-96872375D01*
X179257174Y-96872375D01*
X179123875Y-96872526D01*
X179018935Y-96873364D01*
X178938964Y-96875471D01*
X178880573Y-96879428D01*
X178840369Y-96885813D01*
X178814965Y-96895209D01*
X178800968Y-96908195D01*
X178794989Y-96925353D01*
X178793638Y-96947262D01*
X178793625Y-96951750D01*
X178794503Y-96974576D01*
X178799400Y-96992545D01*
X178811705Y-97006239D01*
X178834808Y-97016237D01*
X178872101Y-97023121D01*
X178926972Y-97027471D01*
X179002812Y-97029868D01*
X179103013Y-97030892D01*
X179230963Y-97031123D01*
X179257174Y-97031125D01*
X179682625Y-97031125D01*
X179682625Y-97237500D01*
X178634875Y-97237500D01*
X178634875Y-97134313D01*
X178635608Y-97078819D01*
X178639587Y-97047907D01*
X178649484Y-97034413D01*
X178667967Y-97031173D01*
X178673341Y-97031125D01*
X178711807Y-97031125D01*
X178665403Y-96984722D01*
X178631601Y-96940881D01*
X178619511Y-96891844D01*
X178618999Y-96874630D01*
X178628228Y-96792866D01*
X178655859Y-96736737D01*
X178689796Y-96711029D01*
X178729480Y-96692948D01*
X178674240Y-96631803D01*
X178639538Y-96588228D01*
X178623234Y-96548905D01*
X178619007Y-96498163D01*
X178618999Y-96494862D01*
X178625088Y-96435318D01*
G36*
X178587250Y-102746125D02*
X178587250Y-102952500D01*
X178428500Y-102952500D01*
X178428500Y-102746125D01*
X178587250Y-102746125D01*
X178587250Y-102746125D01*
G37*
X178587250Y-102746125D02*
X178587250Y-102952500D01*
X178428500Y-102952500D01*
X178428500Y-102746125D01*
X178587250Y-102746125D01*
D12*
X127000000Y-93345000D03*
X129500000Y-93345000D03*
X127000000Y-109855000D03*
X129500000Y-109855000D03*
D13*
X116840000Y-109855000D03*
D12*
X116840000Y-112355000D03*
X147320000Y-111760000D03*
X147320000Y-106760000D03*
X147320000Y-101600000D03*
X147320000Y-96600000D03*
X151130000Y-111760000D03*
X151130000Y-106760000D03*
D14*
X116000000Y-90000000D03*
D15*
X116000000Y-87460000D03*
D16*
X160020000Y-85090000D03*
X160020000Y-87630000D03*
X160020000Y-90170000D03*
X160020000Y-92710000D03*
D17*
X134620000Y-83820000D03*
D18*
X142240000Y-116840000D03*
X134620000Y-86360000D03*
X142240000Y-114300000D03*
X134620000Y-88900000D03*
X142240000Y-111760000D03*
X134620000Y-91440000D03*
X142240000Y-109220000D03*
X134620000Y-93980000D03*
X142240000Y-106680000D03*
X134620000Y-96520000D03*
X142240000Y-104140000D03*
X134620000Y-99060000D03*
X142240000Y-101600000D03*
X134620000Y-101600000D03*
X142240000Y-99060000D03*
X134620000Y-104140000D03*
X142240000Y-96520000D03*
X134620000Y-106680000D03*
X142240000Y-93980000D03*
X134620000Y-109220000D03*
X142240000Y-91440000D03*
X134620000Y-111760000D03*
X142240000Y-88900000D03*
X134620000Y-114300000D03*
X142240000Y-86360000D03*
X134620000Y-116840000D03*
X142240000Y-83820000D03*
D19*
X130450080Y-79170440D03*
X130450080Y-84669540D03*
X121549920Y-84669540D03*
X121549920Y-79170440D03*
D20*
X128199640Y-82170180D03*
X123800360Y-82170180D03*
D21*
X124399800Y-84771140D03*
X125199900Y-84771140D03*
X126000000Y-84771140D03*
X126800100Y-84771140D03*
X127600200Y-84771140D03*
D22*
X127750000Y-89000000D03*
D23*
X125210000Y-89000000D03*
D24*
X128000000Y-99000000D03*
X128000000Y-103880000D03*
D16*
X128000000Y-101440000D03*
D12*
X116000000Y-93000000D03*
D25*
X116000000Y-105700000D03*
D26*
X172260600Y-117748800D03*
X172260600Y-124251200D03*
X167739400Y-117748800D03*
X167739400Y-124251200D03*
X172260600Y-108248800D03*
X172260600Y-114751200D03*
X167739400Y-108248800D03*
X167739400Y-114751200D03*
X172260600Y-98748800D03*
X172260600Y-105251200D03*
X167739400Y-98748800D03*
X167739400Y-105251200D03*
X172260600Y-89248800D03*
X172260600Y-95751200D03*
X167739400Y-89248800D03*
X167739400Y-95751200D03*
X172260600Y-79748800D03*
X172260600Y-86251200D03*
X167739400Y-79748800D03*
X167739400Y-86251200D03*
D27*
X160020000Y-109220000D03*
X160020000Y-111760000D03*
X160020000Y-114300000D03*
X160020000Y-116840000D03*
X160020000Y-119380000D03*
X160020000Y-121920000D03*
D28*
X119616220Y-118191280D03*
X122214640Y-118191280D03*
X124714000Y-123190000D03*
X129811780Y-118191280D03*
X127213360Y-118191280D03*
D29*
X115000000Y-124000000D03*
X115000000Y-80000000D03*
X179000000Y-80000000D03*
X179000000Y-124000000D03*
D30*
X151010000Y-91170000D03*
D15*
X120904000Y-103124000D03*
D14*
X120904000Y-92964000D03*
M02*
